/* XPM */
static char *_dbb9d5276fd442bccf9d534ac4b3dbbI52jcer8u2kQXKHE[] = {
/* columns rows colors chars-per-pixel */
"32 32 191 2 ",
"   c #935B4C",
".  c #8C6245",
"X  c #97604D",
"o  c #9F684E",
"O  c #A06C50",
"+  c #A16D5C",
"@  c #A37859",
"#  c #B97F56",
"$  c #BA7D61",
"%  c #AE815D",
"&  c #B6885A",
"*  c #BF8465",
"=  c #B68768",
"-  c #BD896B",
";  c #BD9161",
":  c #BE936A",
">  c #BB8373",
",  c #BD9579",
"<  c #C38665",
"1  c #CB8763",
"2  c #C48965",
"3  c #CC8965",
"4  c #C38668",
"5  c #C58969",
"6  c #CD8F6A",
"7  c #D28B67",
"8  c #D28C69",
"9  c #C29461",
"0  c #C59C65",
"q  c #CF926B",
"w  c #D29567",
"e  c #D3956B",
"r  c #D9956A",
"t  c #D39B6D",
"y  c #DA9B6D",
"u  c #C78A70",
"i  c #C28A7C",
"p  c #CF9A76",
"a  c #CE9A7E",
"s  c #D09871",
"d  c #DA9E74",
"f  c #D4A06C",
"g  c #DEA06D",
"h  c #D3A673",
"j  c #DFA372",
"k  c #D7A875",
"l  c #DEAC74",
"z  c #DDA47B",
"x  c #DFA97A",
"c  c #E2A36E",
"v  c #E4AB6F",
"b  c #E2A571",
"n  c #E3AB72",
"m  c #E5B375",
"M  c #E7B878",
"N  c #E8BC7B",
"B  c #A97E81",
"V  c #AE848B",
"C  c #B08887",
"Z  c #B89388",
"A  c #A88293",
"S  c #AF8BA2",
"D  c #B098A6",
"F  c #BF91AF",
"G  c #B99CAA",
"H  c #BF99B6",
"J  c #B697B8",
"K  c #BA95BA",
"L  c #BAA1BC",
"P  c #C39087",
"I  c #C5968F",
"U  c #C8988B",
"Y  c #C69896",
"T  c #CD9A9B",
"R  c #D29D9B",
"E  c #CFA281",
"W  c #D9A284",
"Q  c #DDAB82",
"!  c #D8A289",
"~  c #DBAB8B",
"^  c #CCA299",
"/  c #D5A992",
"(  c #DDAF91",
")  c #D3A59A",
"_  c #D4AA9B",
"`  c #DEB89A",
"'  c #E0AF83",
"]  c #CA99A3",
"[  c #C59FAF",
"{  c #C7A0A2",
"}  c #C9A6A9",
"|  c #CEAAAD",
" . c #D3ABA4",
".. c #D9B2A4",
"X. c #D3B5AC",
"o. c #C8A2B4",
"O. c #CEAAB4",
"+. c #C6A8BD",
"@. c #D3A6B5",
"#. c #CCB6BC",
"$. c #D1B6B5",
"%. c #D8B6BB",
"&. c #D7BEBE",
"*. c #BD98C4",
"=. c #BEA6C8",
"-. c #BEACCB",
";. c #BDB3CE",
":. c #C19EC5",
">. c #C4A2C3",
",. c #C3AEC2",
"<. c #CEAEC7",
"1. c #C1A4C8",
"2. c #C3ACCA",
"3. c #CCAEC9",
"4. c #D2ABC3",
"5. c #CCB7C5",
"6. c #CEBEC5",
"7. c #C4B3CD",
"8. c #CAB4CC",
"9. c #C5B9CF",
"0. c #CCBBCE",
"q. c #D0B5C6",
"w. c #D2BCC2",
"e. c #D2B3C9",
"r. c #D3BCCC",
"t. c #DABDCB",
"y. c #C5B6D0",
"u. c #CAB6D1",
"i. c #C7BDD2",
"p. c #CABDD2",
"a. c #D5BDD1",
"s. c #C6C2C5",
"d. c #CFC2CF",
"f. c #D3C3CE",
"g. c #D9C1CF",
"h. c #D6CACE",
"j. c #D9CDCB",
"k. c #DDD0CD",
"l. c #C5C3D4",
"z. c #CBC4D5",
"x. c #C5CCD6",
"c. c #CBCAD6",
"v. c #C8C5D8",
"b. c #C6CCD9",
"n. c #CDCDD9",
"m. c #D3C4D3",
"M. c #DCC5D2",
"N. c #D3CBD5",
"B. c #DBCCD5",
"V. c #D1C7D8",
"C. c #D4CDD9",
"Z. c #DBCEDB",
"A. c #C6D0D7",
"S. c #C6D3DB",
"D. c #CCD4DB",
"F. c #C6DDDC",
"G. c #CCDBDD",
"H. c #D6D2D7",
"J. c #D4D3DB",
"K. c #DBD4DC",
"L. c #D4DBDD",
"P. c #DBDBDE",
"I. c #E2C4CF",
"U. c #E3CED5",
"Y. c #E0D0D0",
"T. c #E3D5DC",
"R. c #E3DADD",
"E. c #D7E0DF",
"W. c #C6DFE5",
"Q. c #CDDBE2",
"!. c #D4DCE1",
"~. c #DBDDE2",
"^. c #E2DCE1",
"/. c #CBE1E2",
"(. c #CAE9E8",
"). c #D4E2E3",
"_. c #DCE2E4",
"`. c #DDE8E6",
"'. c #D0E7E9",
"]. c #D9E8E9",
"[. c #DBE9E9",
"{. c #E4E4E5",
"}. c #ECE4E6",
"|. c #EFE8E7",
" X c #E2E7E8",
".X c #EBE7E8",
"XX c #E3EBEA",
"oX c #EAEBE9",
"OX c #F0EAE7",
"+X c #E2F0EE",
"@X c #F0F0ED",
/* pixels */
"h j n m m N N m n b v m m m x &.w.l m m M M m l k l m n n M l & ",
"* t g c v n n y 8 r c c c ~ &.XXL./ n n n n n t 5 t g g g l t o ",
"* e g c c n n y 7 r c n ( Y._.[.G.$.n n c n n q 4 5 q 6 q q 2 X ",
"* e c c b n n y 7 r b _ R. XE._._.r.Q n c v l e 4 4 5 5 5 5 #   ",
"< t b n c n n y 8 r ..}.oXE.P. X Xh.' b c b c r 1 e t y e e 2 X ",
"* t n n c n n y 8 R T.OX{.L.K.L.~.^.( n c c c 8 7 y n b c c w o ",
"< y n n c n n t u @.I.T.P.K.Z.c. X}.` n b c c r 7 y n n n b w o ",
"1 y n n c n n t u %.R.K.j.g.8.L.@XOX` n c b c r 7 r c n n b w o ",
"1 y n n c n n t i t.L.N.x.g.f._..X}.X.x j b y e 3 r c c b b e o ",
"1 y n n c v n t P N.N.m.F.C.D.).~.!.m.M.$.b c q 5 q j ! .. .{ B ",
"< e j b c n l t U K.r.c.S.C.A.F.J.K._.[.h.b y e 5 e _ 5.z.c.n.G ",
"* e c c c n n q U Z.r.D.G.H.G.G..X~.~.+XM.b j 8 < ^ f.r.m.~.J.D ",
"* e c b c n n e ^ V.d.L.J.G./.G..XJ.J.[.w.z y s I C.^.U.r.e.8.A ",
"* e c c c n n e $.Z.h.K.H.L.F.L._.9.y.c.p.%.| O.Z.{..XZ.t.B.| + ",
"* q y c c n n s w.M.C.N.L.L.F.n.P.8.7.p.~.V.Z.K.P._.C.<.~.k.E O ",
"* e c c c v n s M.g.d.h.E.L.F.C.Z.B.a.~.v.z.!.D.J.J.8.4.q.~ f O ",
"< r c c b n n p t.g.h.G.P.G.D.K.`.H.m.D.b.!.!.C.!.u.i.t.R n d O ",
"1 r c c c n n E M.g.H.L.P.G.D.}.[.z.z.S.W.!.u.a.7.v.i.M.@.n f O ",
"1 r c c c n v _ Z.t.H.P.J.b.J.XX!.i.n.W.L.J.z.3.7.y.y.r.@.z f O ",
"1 r c c b n x  .M.8.B.L.L.S.K.{.Q.v.i.i.D._.J.p.y.3.u.t. .n f O ",
"1 e j b n x #.8.a.3.B.c.D.!.J.[.W.v.y.n.].!.C.p.m.N.8.2.W n t O ",
"* 8 / ' n ) z.y.8.u.C.0.G.).`.'.x.7.C.].].!.y.p.B.z.-.} g n f O ",
"4 p w.I.X.g.c.1.1.C.K.r.G.L.~.D.x.l.~.).+XZ.p.n.J.P.z.^ v n f O ",
"$ p s.n.n.!.!.2.p.G.{.R.D.L.!.l.b.z.~.[.XX~.^.z.g._.J._ c n f O ",
"4 a 5.7.g.J.L.c.P.G.XXR.H.N.n.Q.'.z.~.@X{.R.~.v.0.A.A.+.z n t O ",
"< U s.z.0.z.N.m.E.L.K.g.N.z.D.'.Q.n.~. X!.~.L.n.7.c.c.5.T v t O ",
"* P *.n.0.1.8.C.C.R.C.C.n.i.Q.(.D.n.K.`._.L.L.z.y.l.w.) g v w O ",
"> J ;.i.c.>.2.M.m.K.D.Z.N.z.!.G.b.u.~._.~.L.v.=.7.} ~ v b v w o ",
"- Y s.-.0.8.:.I.u.c.J.K.p.x.D.l.2.K.`.J.P.z.o.I i t n n b b w o ",
"* s / o.:.0.4.e.*.=.u.u.*.2.;.-.l.!.D.,.| ! d q 2 d n m n n w o ",
"* w z W ] o.4.*.K F H H T T H =.z.D.#.W b c y w 5 t m v b c w o ",
"@ = 9 9 9 : Z S V = : 5 9 9 : C J L , ; 9 9 9 = % ; 0 0 9 9 & . "
};
