/* XPM */
static char *_9ebc777b6c14a45bb62f1cb60a361a4DhlwwVa6mkDYRZ65[] = {
/* columns rows colors chars-per-pixel */
"32 32 179 2 ",
"   c #6C5866",
".  c #6B5E6D",
"X  c #745E64",
"o  c #745C6A",
"O  c #7C5D6A",
"+  c #67606F",
"@  c #6A606F",
"#  c #756065",
"$  c #7B626D",
"%  c #676372",
"&  c #6B6473",
"*  c #716674",
"=  c #736977",
"-  c #7B6975",
";  c #756D7A",
":  c #7A6E79",
">  c #69717F",
",  c #76707C",
"<  c #7B727E",
"1  c #935B4C",
"2  c #8C6245",
"3  c #97604D",
"4  c #9E664E",
"5  c #9F684E",
"6  c #A0664E",
"7  c #A06C50",
"8  c #A37859",
"9  c #825F6D",
"0  c #826764",
"q  c #85616E",
"w  c #89626E",
"e  c #937463",
"r  c #856570",
"t  c #8C6471",
"y  c #846972",
"u  c #8D6A73",
"i  c #826E79",
"p  c #946673",
"a  c #9C6774",
"s  c #946C75",
"d  c #9D6A76",
"f  c #956F78",
"g  c #8F7077",
"h  c #83747D",
"j  c #8D737B",
"k  c #947077",
"l  c #9F7874",
"z  c #957479",
"x  c #9B757B",
"c  c #9D797E",
"v  c #AA7A6D",
"b  c #B87D61",
"n  c #A26C77",
"m  c #A36D78",
"M  c #A37276",
"N  c #A17875",
"B  c #A4747A",
"V  c #AD727B",
"C  c #A27B7F",
"Z  c #AC797D",
"A  c #B17B7E",
"S  c #B87C7F",
"D  c #B4865E",
"F  c #B5885A",
"G  c #BE8365",
"H  c #B5866A",
"J  c #BD9060",
"K  c #A68078",
"L  c #AB8279",
"P  c #AC8A7B",
"I  c #B28677",
"U  c #B3887F",
"Y  c #C38665",
"T  c #CB8763",
"R  c #C48A65",
"E  c #CD8864",
"W  c #C68B6A",
"Q  c #C4906E",
"!  c #CD936D",
"~  c #CF996E",
"^  c #D29567",
"/  c #D3956B",
"(  c #DA966A",
")  c #D39C6C",
"_  c #DA9C6D",
"`  c #C58B78",
"'  c #CC9C70",
"]  c #C3947D",
"[  c #C9977E",
"{  c #D4A06C",
"}  c #DCA26E",
"|  c #D4A472",
" . c #DCA671",
".. c #D3AA77",
"X. c #DCAA72",
"o. c #E2A36F",
"O. c #E6AE71",
"+. c #E7B677",
"@. c #6D7684",
"#. c #6D7D8B",
"$. c #737582",
"%. c #7F7580",
"&. c #747C89",
"*. c #817781",
"=. c #847A84",
"-. c #9C7C80",
";. c #A37D81",
":. c #AB7D81",
">. c #B57F80",
",. c #76818D",
"<. c #78818D",
"1. c #7B8691",
"2. c #7C8A93",
"3. c #A58281",
"4. c #AA8183",
"5. c #B28585",
"6. c #BA8585",
"7. c #B38A84",
"8. c #BD8A86",
"9. c #B68788",
"0. c #B68A89",
"q. c #BB8D8B",
"w. c #BC9285",
"e. c #B7938B",
"r. c #BD918D",
"t. c #BEA596",
"y. c #C38383",
"u. c #D28786",
"i. c #C19787",
"p. c #CB9780",
"a. c #C2938F",
"s. c #CA948D",
"d. c #C19B8B",
"f. c #C9988F",
"g. c #DB958F",
"h. c #C59691",
"j. c #C49D91",
"k. c #CA9991",
"l. c #E18F8B",
"z. c #E2938E",
"x. c #E49D93",
"c. c #DCA98A",
"v. c #C1A393",
"b. c #CFA496",
"n. c #D4A597",
"m. c #D3A798",
"M. c #D1A899",
"N. c #DDAC9C",
"B. c #E5AE8D",
"V. c #E9B18F",
"C. c #E2AC9C",
"Z. c #EEAD9D",
"A. c #F2AF9E",
"S. c #E5B391",
"D. c #EAB792",
"F. c #E8B994",
"G. c #EAB19F",
"H. c #E7BD9A",
"J. c #E9BD99",
"K. c #F1B19F",
"L. c #E3B5A1",
"P. c #E5BAA4",
"I. c #EABAA6",
"U. c #F2B5A1",
"Y. c #F5BCA5",
"T. c #F9BFA7",
"R. c #E7C09D",
"E. c #E9C19C",
"W. c #EEC2A9",
"Q. c #F6C2AA",
"!. c #F9C4AA",
"~. c #F7CCAF",
"^. c #FACAAE",
"/. c #E9C5B0",
"(. c #F4CAB1",
"). c #F9CDB1",
"_. c #FBCDB1",
"`. c #FDD2B5",
"'. c #FED4B8",
/* pixels */
"| X.O.O.+...P v.W.a.N.^.^._._.L.4.^.^.^.`.`.C.3.~.b.P ' O.+.X.F ",
"Y / o.o./ w./._.Q.q.n.Q.Y.Q.!.C.4.Y.Q.Q.Y.!.N.K T.(.W.a.Q  .) 7 ",
"G / } o.I I._.U.z.m B >.U S >.B u A A S 5.S B p l.Z.^.(.U W R 3 ",
"G / o.H f.^.A.g.a O p n n n n O + @ w m m m a O t u.U.^.N.v b 1 ",
"Y ) X.I I.!.x.a   O t t p t t O % @ 9 w q w q o   w g.!.Q.p.R 3 ",
"Y )  .w._.T.y.O p B :.:.:.:.m O & & $ s z k z k t O S T._.V.^ 4 ",
"Y _ X.Z j.w.p o p d ;.;.;.;.c O & & w c C C -.C a O w i.j.[ ^ 4 ",
"T _ X.L n.f.s . . z 4.4.;.:.4.d & : C 4.3.4.4.C o . u s.M.[ ^ 6 ",
"T _  .v.`.!.Z #.,.c h.h.h.h.k.q.= h h.h.h.h.k.4.@.#.C Y._.J.^ 6 ",
"T _  .v.`.Y.Z i j 4.w.e.r.q.r.5.; h 5.q.q.q.r.5.j i m Y._.H.^ 6 ",
"Y ) _ j.`.Y.Z O r y y y y y y 9 ; < f -.-.-.x c x u B Y.^.J.) 7 ",
"Y / } w._.Y.Z q p p p p p p a 9 ; =.9.r.r.a.h.r.q.5.A Y.^.F.) 7 ",
"G / _ w.Q.G.Z a V V V V V V V a ; *.9.r.r.r.r.r.r.5.Z G.Q.D.{ 7 ",
"G / _ l e.7.u w f f f f f p f t * - z x x x -.x x s w U e.U { 7 ",
"b / _ q.Q.G.Z 5.a.q.q.q.q.q.q.;.& - 5.q.q.h.r.r.r.5.V C.W.S.{ 7 ",
"Y / _ t.'.Y.Z 4.h.a.h.h.h.h.>.=., $.z 9.r.r.r.r.a.4.Z Q.~.E.{ 7 ",
"R ( _ d.`.Y.V o $ $ $ $ $ $ o &.2.&.%.u z z z z z y m Y.^.E.{ 7 ",
"E ( _ d._.Y.Z o p p p p p p 9 &.1.&.*.0.r.h.h.h.h.9.Z Y.^.F.{ 7 ",
"E ( _ i.`.T.Z o n n n n n n t &.1.&.%.:.0.0.0.q.0.:.Z Y.^.D.{ 7 ",
"E ( _ N e.5.t u z x x z x x q &.1.&., o o o o o o   w 5.e.] { 7 ",
"Y / _ L m.k.B 9.h.h.h.h.h.h.4.&.2.&.< p a a a a a O p s.M.[ { 7 ",
"Y ^ _ v.`.Y.U B 9.5.5.5.5.5.x &.1.&.< a m m n n d q M Q.`.E.{ 7 ",
"G /  .v.`.Y.Z w x c ;.;.C C s @.<.&.< f c c c x k u B Y.^.E.{ 7 ",
"G )  .v.`.Y.Z ; h 4.r.h.a.a.q.s & & c a.h.a.h.9.i , B Y.^.E.{ 7 ",
"G ) X.d.^.Y.Z #.#.-.h.a.a.h.h.9.= h q.h.a.h.h.4.> #.c Y.~.D.) 5 ",
"Y ~ { 7.P.C.M . o s x c x x c t = : c -.c c -.x $ o a C.P.c.{ 5 ",
"G W Q B j.8.p p m m m m n m d O & : 4.5.5.5.5.7.7.;.p 8.d.[ ) 5 ",
"b W Y r._.Y.A t d d d d a d a O & h r.h.h.h.h.h.h.q.A U.~.S.^ 4 ",
"G ! ~ v.'.Y.Z   o o o o o o o o & * u g g g g g g w M Y._.R.^ 5 ",
"G ) } i.^.K.A C q.0.q.0.q.0.q.:.& + O 9 q q w w q O m A.Q.B.^ 4 ",
"G / } N 6.S p f ;.;.;.;.C ;.;.d @ . 9 p p p p p p O w S 6.` ^ 6 ",
"8 D J 0 X X X X X X X X X X X X o X X X X X X X X X # # X e F 2 "
};
