/* XPM */
static char *_11e84755ec24c4796874415b928fa1cDdevMt94C1IkBvpp[] = {
/* columns rows colors chars-per-pixel */
"32 32 155 2 ",
"   c #675664",
".  c #6C5765",
"X  c #6E5967",
"o  c #6D5B69",
"O  c #715967",
"+  c #745B69",
"@  c #7B5D6B",
"#  c #666575",
"$  c #6C6472",
"%  c #706471",
"&  c #935B4C",
"*  c #8B6245",
"=  c #97604D",
"-  c #9E664E",
";  c #9F694F",
":  c #9F6A50",
">  c #A06C50",
",  c #A37859",
"<  c #B97F56",
"1  c #815F6D",
"2  c #85616E",
"3  c #89626F",
"4  c #856370",
"5  c #8C6471",
"6  c #866971",
"7  c #8D6B75",
"8  c #946673",
"9  c #986774",
"0  c #936A73",
"q  c #9C6B75",
"w  c #947176",
"e  c #96757A",
"r  c #9A7679",
"t  c #9D7C7C",
"y  c #AF7B65",
"u  c #AC7C68",
"i  c #BA7D61",
"p  c #A26C77",
"a  c #A56C78",
"s  c #AA6E7A",
"d  c #A07077",
"f  c #A77C70",
"g  c #AE717B",
"h  c #A37A7C",
"j  c #AC7D7E",
"k  c #B0717C",
"l  c #BC797E",
"z  c #C17C7F",
"x  c #B7895A",
"c  c #A98262",
"v  c #BE8365",
"b  c #B2826D",
"n  c #B78A6C",
"m  c #BE8C6C",
"M  c #BF926E",
"N  c #AB8170",
"B  c #B59175",
"V  c #BE9572",
"C  c #C38665",
"Z  c #CB8763",
"A  c #C58A65",
"S  c #CD8864",
"D  c #C18D6B",
"F  c #C88B6A",
"G  c #C2936E",
"H  c #CE946B",
"J  c #D59767",
"K  c #D59867",
"L  c #D3956B",
"P  c #DB966A",
"I  c #D59B6D",
"U  c #DB9E6E",
"Y  c #C18E70",
"T  c #C29471",
"R  c #C79970",
"E  c #D6A26C",
"W  c #DEA26E",
"Q  c #D3A674",
"!  c #DEA771",
"~  c #DDAF73",
"^  c #DCB279",
"/  c #E2A36F",
"(  c #E4AB6F",
")  c #E0A470",
"_  c #E3AC71",
"`  c #E6B475",
"'  c #E7BA7A",
"]  c #657181",
"[  c #6E7482",
"{  c #667988",
"}  c #6D7D8A",
"|  c #747A87",
" . c #947981",
".. c #D07F82",
"X. c #9D8080",
"o. c #A18483",
"O. c #AD8381",
"+. c #A18887",
"@. c #AE8884",
"#. c #A18C8A",
"$. c #B28583",
"%. c #B38F88",
"&. c #B88E88",
"*. c #B99687",
"=. c #B79089",
"-. c #BC948B",
";. c #C48283",
":. c #CD8987",
">. c #D48183",
",. c #C5928A",
"<. c #C8938C",
"1. c #D3948D",
"2. c #C49D92",
"3. c #D49B91",
"4. c #EA9E94",
"5. c #C7A295",
"6. c #CCA496",
"7. c #C5A69A",
"8. c #CCA699",
"9. c #C5AA9E",
"0. c #CCAB9D",
"q. c #DDA396",
"w. c #D3AA9B",
"e. c #DCAD9C",
"r. c #DCB09D",
"t. c #EBA296",
"y. c #ECA598",
"u. c #E6AC9C",
"i. c #E9AD9D",
"p. c #E2B09E",
"a. c #EBB19F",
"s. c #C5AEA2",
"d. c #CCADA0",
"f. c #CCB1A4",
"g. c #E3B4A0",
"h. c #EBB4A1",
"j. c #ECBDA5",
"k. c #F5BCA5",
"l. c #F9BEA6",
"z. c #EFC0A7",
"x. c #F3C4AA",
"c. c #FAC7AC",
"v. c #F4C9AD",
"b. c #FCCAAE",
"n. c #FBCCAF",
"m. c #FDCCAF",
"M. c #F2CBB3",
"N. c #F9CDB2",
"B. c #FDCEB1",
"V. c #FECFB0",
"C. c #FBD0B3",
"Z. c #FFD2B2",
"A. c #FBD1B4",
"S. c #FBD3B7",
"D. c #FFD4B4",
/* pixels */
"Q ! ( _ ' ' ^ V t 6 t o.+.+.o.4 e o.+.+.#. .7 t B Q ` _ _ ' ~ < ",
"C L / ( / T -.w.x.%.z.m.N.A.V.%.g.V.N.V.S.x.=.x.w.*.T U / ! I > ",
"v H W / Y 6.M.v.a.$.a.k.k.x.k.N t.l.k.k.k.a.$.i.c.M.w.b H L C & ",
"v L ) H $.N.c.t.>.8 q q q q q 2 0 q r q q q 8 ..4.x.V.@.y F i & ",
"v L / N p.c.y.z @ 1 3 .   . . .     .   @ q 1 @ l t.c.h.f K A = ",
"A I R =.n.k.:.@ @ 3 2 X o . X o o o X X O @ @ O @ ;.k.m.,.G J - ",
"A U M 2.V.a.d 2 p s 8 X o o X X o O X X o 5 9 9 2 q u.m.6.D J - ",
"Z U G w %.h @ @ 5 5 1 O X # o X X X X X . @ 5 5 @ @ h %.w G J - ",
"Z U G %.j.3.7 # 5 a a q O # o X X X X . @ p a 3 $ 7 3.j.&.D J - ",
"Z U G 9.D.a.t | 7 s s s O o o X X X X X 1 k k 5 | e a.C.f.G K - ",
"C I m 9.C.a.0 4 9 q p 8 X # o . X X X X @ 9 p 9 6 0 i.V.d.G U ; ",
"C L m 7.C.h.0 O + O + X X # o o X X . O 2 9 8 9 5 0 i.C.0.G E ; ",
"v L m 5.C.a.q q s a a @ X # o o X X X O a g k k g d i.m.6.T E : ",
"v L v O.r.<.8 8 p q 9 @ o # o X X X X X 3 q q q q 3 ,.r.$.T E > ",
"v L v O.e.<.5 0 q 9 @ X o # o X X X X X O @ 8 p 8 3 ,.r.@.R E > ",
"v L m 9.C.a.d g s s 1 X o $ o . X X X X X @ g g g p p.Z.d.T E > ",
"C P v 9.V.a.9 5 9 5 + o } % . . X X X # [ + 5 9 8 8 i.C.f.G E > ",
"S P G 7.A.h.7 X 1 @ @ o { $ O X X O O | ] . 4 q 9 0 i.V.0.G E > ",
"S P D 5.A.h.0 5 s s 8 X { % O X X O o [ ] X 8 g s p i.S.8.G E > ",
"S P D %.k.q.5 @ 3 3 @ o { % . X X o X [ ] X @ 1 1 5 3.j.,.R E > ",
"C L m 0 &.h 5 q a a 5 o { $ O X X X X [ # o @ 1 + @ h %.e T E > ",
"C P n 5.V.i.q a s s 9 o { $ O X X O X [ ] O 5 s 3 5 u.V.8.M E > ",
"v I V s.S.i.9 3 5 5 1 X { $ . X X X O [ ] O 2 5 2 0 u.V.f.T E > ",
"v I V 7.S.h.0 @ a s 9 X $ o X . X o X $ $ @ a q 2 0 a.Z.d.T E > ",
"v I T 2.A.i. .} 2 k q O . o o . o . . O . @ s 5 } e i.V.0.T I > ",
"v L m -.v.u.0 $ 5 q 3 O O # o o O O . o O @ 8 5 $ 7 q.x.2.T E : ",
"v F u e <. .4 8 9 q 9 @ X # . X . O O . @ 8 q q 0 2 N -.r D K ; ",
"v D u 2.v.u.q p s s a 1 o $ . X . o o . 1 s g k g q e.v.2.G J - ",
"v H n 9.D.a.0 O + + + O o # o . O . o . + 8 8 8 5 0 i.V.f.G J - ",
"v I G 2.m.i.q 9 q q p 8 O # o o o O o O X + 1 1 @ 5 y.b.6.G J - ",
"v P G h 1.;.3 9 p q p 8 O # o O . o O . X 5 q q 2 2 >.<.j G J - ",
", c c o + O X O O O o X . o o . O O X . X O . o . o O O O c x * "
};
