/* XPM */
static char *result[] = {
/* columns rows colors chars-per-pixel */
"32 32 184 2 ",
"   c #6E7671",
".  c #935B4C",
"X  c #8C6245",
"o  c #97604D",
"O  c #9E664E",
"+  c #9F694F",
"@  c #A06C50",
"#  c #A37859",
"$  c #B77F58",
"%  c #9B7A7A",
"&  c #ED4A49",
"*  c #FE4646",
"=  c #FE4947",
"-  c #FD4748",
";  c #F64C49",
":  c #FC4C4A",
">  c #F5544D",
",  c #FA534C",
"<  c #F8594E",
"1  c #EA5151",
"2  c #F35552",
"3  c #FD5454",
"4  c #FB5D51",
"5  c #FE5959",
"6  c #DC755D",
"7  c #FD694F",
"8  c #F56152",
"9  c #F26C56",
"0  c #FA645B",
"q  c #E2745A",
"w  c #EC7159",
"e  c #EE7B5D",
"r  c #F87759",
"t  c #D67762",
"y  c #D97D64",
"u  c #FE6565",
"i  c #F56B66",
"p  c #FD6B65",
"a  c #E77867",
"s  c #F77267",
"d  c #FC7464",
"f  c #FD7B62",
"g  c #F57D6B",
"h  c #58837D",
"j  c #AE815D",
"k  c #B4865E",
"l  c #B98A5C",
"z  c #928876",
"x  c #BF8365",
"c  c #BD9161",
"v  c #BA9671",
"b  c #C2935E",
"n  c #FD8C55",
"m  c #FDAD5F",
"M  c #C38665",
"N  c #CB8763",
"B  c #C48A65",
"V  c #CD8865",
"C  c #C68969",
"Z  c #CC8D69",
"A  c #D28466",
"S  c #D28B67",
"D  c #DB8867",
"F  c #DE8D66",
"G  c #C29461",
"H  c #C49B63",
"J  c #CD926B",
"K  c #D29567",
"L  c #D2956B",
"P  c #DA9569",
"I  c #D49B6D",
"U  c #DA9C6D",
"Y  c #CA9F76",
"T  c #DF9E72",
"R  c #E08261",
"E  c #ED8564",
"W  c #EB8B63",
"Q  c #ED8D6C",
"!  c #FD8462",
"~  c #FB8A64",
"^  c #F1836B",
"/  c #E59669",
"(  c #EB936C",
")  c #E59C6C",
"_  c #E99A6E",
"`  c #FD9560",
"'  c #FD9E61",
"]  c #E69C72",
"[  c #FD9D75",
"{  c #D4A06C",
"}  c #DEA16E",
"|  c #C9AC7B",
" . c #D5A472",
".. c #DDA573",
"X. c #D7A875",
"o. c #DEAC74",
"O. c #E3A46F",
"+. c #E9A36D",
"@. c #E4AB6F",
"#. c #FDA266",
"$. c #FCAC62",
"%. c #FCB967",
"&. c #E3A571",
"*. c #E3AB72",
"=. c #E9AC7B",
"-. c #F7A475",
";. c #E5B475",
":. c #EAB67A",
">. c #E9BA7B",
",. c #F9B87B",
"<. c #FDC37A",
"1. c #5A8B89",
"2. c #5F9595",
"3. c #669089",
"4. c #7C9B8E",
"5. c #629595",
"6. c #669999",
"7. c #6C9999",
"8. c #759C95",
"9. c #68A09F",
"0. c #77A4A4",
"q. c #0ACCFD",
"w. c #11CBFC",
"e. c #1DCFFA",
"r. c #6FD6DE",
"t. c #64D6E8",
"y. c #7BD9E0",
"u. c #8D8686",
"i. c #909D89",
"p. c #859692",
"a. c #AD8989",
"s. c #8DA497",
"d. c #BDA58F",
"f. c #83ABAB",
"g. c #85B4B4",
"h. c #8AB1B0",
"j. c #9AB6B2",
"k. c #A3B0B0",
"l. c #B8BEB3",
"z. c #C98787",
"x. c #C2A98D",
"c. c #DAA888",
"v. c #D1B793",
"b. c #EDA985",
"n. c #FDA387",
"m. c #EEB789",
"M. c #F7B482",
"N. c #E5B99B",
"B. c #C6BDA7",
"V. c #B9C1B2",
"C. c #DFC28D",
"Z. c #FDC782",
"A. c #F7C389",
"S. c #FBC38B",
"D. c #F5C98D",
"F. c #FCCC8E",
"G. c #EECD9A",
"H. c #FDCE90",
"J. c #F3CF9A",
"K. c #FDD292",
"L. c #F9D29C",
"P. c #D7D4AE",
"I. c #CAD7BA",
"U. c #EBCDA1",
"Y. c #E1D3A7",
"T. c #FDD7A3",
"R. c #E6D3BF",
"E. c #9FCACA",
"W. c #9AD5CD",
"Q. c #9ADAD7",
"!. c #ACC6C6",
"~. c #B3CCCC",
"^. c #A0D5CF",
"/. c #81DDE5",
"(. c #96DFE4",
"). c #E1D1C7",
"_. c #E4D9D4",
"`. c #D6E4D3",
"'. c #E6E0DC",
"]. c #F7E2D1",
"[. c #E9EAEA",
"{. c #F5EFEA",
"}. c #F8F7F6",
"|. c #FDFEFE",
/* pixels */
" ...@.;.;.>.>.;...O.e 8 r +.W : : W ;.;.m.>.;.o.X.;.;.*.*.;.o.l ",
"B L } O.@.*.*.U L P 9 = * < 4 - 3 g Q W Q ] ) L C J T ..O.*.I + ",
"x L } &.O.*.*.U S P ) 9 : 5 0 u u u u u u u s s a A Z Z J J B . ",
"x J O.O.O.*.*.U S D 9 , 0 u u u u p u u u u u u u i y C C C $ . ",
"x L *.O.O.*.*.U y > * 3 u u u u u u u u u u u u u u u F L L N o ",
"B I ..*.O.*.*.F : * : u u u u u u u u u u u u u u u u s O.O.K + ",
"B I *.*.O.*.*.8 = = 3 u u u u u p u u u u u p u u u u u _ *.K O ",
"N U *.*.O.*./ = - - 3 u u u u u u u u u u u u u p u u u ( *.K O ",
"V U *.*.O.&.w * * * 5 u u u u u u u p u u u u u u u u u g &.K O ",
"N U *.*.O.+.8 = * = 5 u u u u u u p u u u u u u u u u u g ..K + ",
"M L ..&.O._ , = = * 5 u u u u u u u u u u u u u u u p u ^ @.L + ",
"x L O.O.O.W : = * * , u u u u u u p u u u p ! u u u u u Q ;.{ @ ",
"x L O.O.O.e * = * * : u u u u u u u p d f ` m ! d p u s ) *.{ @ ",
"x L } O.O.9 * = * : r r u n ' #.M.m.,.<.<.<.<.<.,.$.~ O.O.*.{ @ ",
"x L U O.) < * * * r m f u #.%.T.y.t.P.H.F.F.L.Q.r.U.-...@.*.{ @ ",
"x L ) *.e = * = * n ' 0 u $.<.`.q.q.W.H.H.F.I.e.q.Q.>.*.O.*.{ @ ",
"N L ) E = * = * * 7 f u f %.Z.`.q.q.W.K.H.F.I.e.w.^.:.*.&.*.U @ ",
"N P e : * * * * * 3 u u r $.Z.T.(.y.Y.F.H.F.L.Q./.N.&.&.&.*.{ @ ",
"V R ; = * * * * = u u u : q | C.G.J.D.D.F.F.D.S.n.g ) &.@.*.{ @ ",
"V q = = * = * * 3 u u 3 &   h 3.8.4.p.V.s.z t a u p _ &.O.*.{ @ ",
"M q * * * * = * 3 u u - 0 p.h 1.6.6.6.h.2.1.z a u i _ &.O.*.{ @ ",
"M A , * * * * * - - : 0 M.U.a.3.6.6.2.h.0.s.v.] ^ Q O.+.O.*.{ @ ",
"x L e * * * * * * 4 [ S.L.[ 2 p.6.6.2.9.u.b.K.S.A.m.*.O.O.;.{ @ ",
"x I *.w * * * * * [ K.K.[ : 1 k.!.~.!.E.z.7 M.F.K.F.:.O.O.*.{ @ ",
"x L *.;.W , = = * f -.0 * ; % 2.6.0.0.g.a.; / &.) &.O.&.O.*.{ @ ",
"x I ..X.o./ w 2 ; * * * ; % 6.6.5.6.6.5.5.y O.L S L &.O.O.*.I @ ",
"x C J J J J Z V 6 w 9 , 1 7.6.6.7.6.6.6.6.i. .L N I *.&.O.O.K + ",
"x C C C C C C V V U @.) &.l.0.2.2.5.5.5.2.8.Y Z C I *.*.O.O.K + ",
"x J I I I I U L S P O.O...=.Y.l.j.h.f.h.j.B.*.L C I *.;.*.O.K O ",
"x L *.*.&.&.*.U S P O.O.&.] / c._.[.}.|.].&.T J C I *.;.;.@.K O ",
"x I &.&.O.*.*.U S P O.O.&.&.&.).[.'.{.|.].O.} J C I *.*.*.O.K O ",
"# x l G G H H c $ l B G G G G x.d.v v.}.R.b c k j v H H b G l X "
};
