/* XPM */
static char *_805f9da450446bea491ca7ef1e80c19gNA8efOz5zwfpa0G[] = {
/* columns rows colors chars-per-pixel */
"32 32 86 1 ",
"  c #6E5866",
". c #715967",
"X c #745B69",
"o c #7B5D6B",
"O c #76616F",
"+ c #7C606C",
"@ c #7C6471",
"# c #825F6D",
"$ c #83636E",
"% c #88626F",
"& c #876671",
"* c #8D6471",
"= c #8C6A74",
"- c #8D6F78",
"; c #926672",
": c #926D75",
"> c #9F6976",
", c #926C78",
"< c #8E717A",
"1 c #947177",
"2 c #957279",
"3 c #99767B",
"4 c #9B797D",
"5 c #A26B77",
"6 c #A56C78",
"7 c #AA6E7A",
"8 c #A7757D",
"9 c #AD717B",
"0 c #A9797E",
"q c #9D7E81",
"w c #AD7680",
"e c #A57F81",
"r c #B47D82",
"t c #9F8183",
"y c #A18485",
"u c #AD8384",
"i c #A18788",
"p c #A38A8B",
"a c #B38586",
"s c #B98386",
"d c #B48887",
"f c #BA8688",
"g c #B38988",
"h c #B48888",
"j c #B48B89",
"k c #B68A88",
"l c #B68B89",
"z c #B78B8A",
"x c #B78D8B",
"c c #B78E8B",
"v c #B88A8A",
"b c #BD8989",
"n c #BE8C8B",
"m c #BD898C",
"M c #B98F8C",
"N c #BA8F8C",
"B c #BC8D8C",
"V c #BF8F8C",
"C c #BE8F8D",
"Z c #BE908D",
"A c #BE918D",
"S c #BE918E",
"D c #BD9491",
"F c #C08D8C",
"G c #C08F8D",
"H c #C1908D",
"J c #C0928F",
"K c #C4938F",
"L c #C3948F",
"P c #C29390",
"I c #C39390",
"U c #C39490",
"Y c #C39590",
"T c #C49490",
"R c #C69691",
"E c #C49793",
"W c #C39893",
"Q c #C69993",
"! c #C59994",
"~ c #C69A94",
"^ c #C79A94",
"/ c #C69996",
"( c #C79D97",
") c #C79E98",
"_ c #C79F99",
"` c #C89E98",
/* pixels */
"  .**,844444443o  .=*:3444:;$. O",
"oo&97fTTTTPFFFz$.o#77sKTKTr97%o+",
"57999sTUTTUQQPL:>7779sLLTLs7977&",
">>>550zzgggazga&;55658dBBd8555>&",
"&;***23$24qyt432;*%;;:3$:42****,",
"sssrsVz:LUUQ(QULsssrsFS1BTTssssm",
"KKLSLBe:UUTUUULUPKQSTSz=LTTUTPPQ",
"znzzzza=alldzzzBvzzzvBd%unzzzzzD",
"244iptt33433433$24typtq33343333=",
"LPQQ_WQQUUUUULS2VULW_(WQLLTKUUSq",
"UPKKLPLLPPSVSze=SUUUUUUULPLvDje=",
"gBzVBzBVBzzVcVu=aBgZlSzVVzzzZBu<",
"4333333$24qtppt23434444$244ttttt",
"ssssnLV3SUTW((QLSSnSSSu=BTQQ(_W_",
"77997nK4STULSLLLUSLSQUv2SUPTTDPW",
" o>55rv;dSSBSZBSSVVnBVv=aSSVVPD/",
"-14qq4423333434$24ttt44133::%+X&",
"LWWUQPLLLUSznVu=BTWUWLWLLLr79o O",
"LLLLLPLLLLLLUUz2SLUULLLLLLs9955=",
"dSSVSSnSSSSBBSB:aSSSZZZSSS07775=",
"t444343=14qqt4324444343&24,*%%;=",
"QLLBSSu=LLUQQQLU(QKBBSd=zUFsrsrb",
"LLWLQLz1LKUUPPTTKLWKQLB1PPPUPPLQ",
"SVSSBBB:zSSSSSVLSSSBnZB=hPVVDVST",
"244tptt23344433#244tptq22444443=",
"SLL(_(QPLKLSSLD2BLW(_(UQTSVLCDP4",
"KKULLULPTPFnPgt:SUKLUULPKPSnPgu-",
"BSSSSSSSSSVBLVh=zLSSSSSSLVVVDVh-",
"3433443=244yiiy:2443343=,qqeiieq",
"ffzsvLB:vLTSVDmFLSnVSSu=zTPFSDmc",
"77997nL4LLf97967LLVLTQz2PPf7777w",
"X%799sV2nLr775o&VPSLPSP2vPr7w6o@"
};
