/* XPM */
static char *_82d953f060c4883cd9b93be9f118d5cddnPu3K8rE1crOkj[] = {
/* columns rows colors chars-per-pixel */
"32 32 186 2 ",
"   c #707E79",
".  c #935B4C",
"X  c #8C6245",
"o  c #97604D",
"O  c #9E654E",
"+  c #9F694F",
"@  c #A06C50",
"#  c #A87C5B",
"$  c #B77F58",
"%  c #926C6A",
"&  c #8E7A73",
"*  c #967D7D",
"=  c #B96B6B",
"-  c #BA7E61",
";  c #A87272",
":  c #CC5C5C",
">  c #E94F4E",
",  c #FE4646",
"<  c #FE4847",
"1  c #F54A48",
"2  c #FC4C4A",
"3  c #F0564E",
"4  c #FC514A",
"5  c #F85A4F",
"6  c #E95757",
"7  c #FD5353",
"8  c #F35D51",
"9  c #FC5A52",
"0  c #FE5C5C",
"q  c #D2775F",
"w  c #E96655",
"e  c #F66352",
"r  c #FE605E",
"t  c #F46C5A",
"y  c #EF7A5C",
"u  c #F8795A",
"i  c #CC7F65",
"p  c #D17660",
"a  c #D47C67",
"s  c #DF7B62",
"d  c #E76767",
"f  c #EC6E64",
"g  c #FE6565",
"h  c #FD6B65",
"j  c #FD6E68",
"k  c #E27A63",
"l  c #F57467",
"z  c #FD7163",
"x  c #FD7D64",
"c  c #FA7468",
"v  c #F57B69",
"b  c #55837C",
"n  c #AE815D",
"m  c #B4865F",
"M  c #B6885D",
"N  c #BB8B5D",
"B  c #95807F",
"V  c #8D957B",
"C  c #BF8365",
"Z  c #BD9262",
"A  c #B19D7F",
"S  c #FD8755",
"D  c #FD9958",
"F  c #FCAC5E",
"G  c #C38665",
"H  c #CB8763",
"J  c #C48A65",
"K  c #CD8965",
"L  c #C48769",
"P  c #C58969",
"I  c #CA8A68",
"U  c #D38463",
"Y  c #DC8464",
"T  c #D28B67",
"R  c #DD8E67",
"E  c #D48D68",
"W  c #D88F69",
"Q  c #C29461",
"!  c #C49B63",
"~  c #CD926B",
"^  c #CE9A6E",
"/  c #D29567",
"(  c #D2956B",
")  c #D9956A",
"_  c #D49B6D",
"`  c #DA9B6D",
"'  c #D08279",
"]  c #EB8461",
"[  c #E98A67",
"{  c #FD8462",
"}  c #F0836B",
"|  c #E7956B",
" . c #E99569",
".. c #E59C6C",
"X. c #E9996C",
"o. c #FC9A63",
"O. c #F79674",
"+. c #FE9F76",
"@. c #D4A06C",
"#. c #DEA16E",
"$. c #DCA671",
"%. c #DDAB74",
"&. c #D9A879",
"*. c #E2A36F",
"=. c #E4AB6F",
"-. c #FDA568",
";. c #FCB361",
":. c #FBBB66",
">. c #E3A670",
",. c #E3AB72",
"<. c #E2AC73",
"1. c #E2AD74",
"2. c #F8A777",
"3. c #E5B175",
"4. c #E6B576",
"5. c #E9B379",
"6. c #E8BC7B",
"7. c #F9B876",
"8. c #FCC37D",
"9. c #5C8B88",
"0. c #5E9393",
"q. c #5E9999",
"w. c #7E8F8D",
"e. c #6C9088",
"r. c #7A908E",
"t. c #639695",
"y. c #679898",
"u. c #669999",
"i. c #699B9A",
"p. c #709F9F",
"a. c #7CA6A6",
"s. c #7BA9A9",
"d. c #05CAFE",
"f. c #0BCDFD",
"g. c #1DD2FF",
"h. c #38D4FA",
"j. c #4BD7F9",
"k. c #6BD9E7",
"l. c #69DBF5",
"z. c #A59393",
"x. c #98A58D",
"c. c #92A99D",
"v. c #80A9A9",
"b. c #97ADAA",
"n. c #8BB2B4",
"m. c #9BBDBD",
"M. c #A1BFBF",
"N. c #B4BFB5",
"B. c #DE8E84",
"V. c #DDAB83",
"C. c #C2B28A",
"Z. c #D7B894",
"A. c #F7A080",
"S. c #E6B385",
"D. c #FAB984",
"F. c #E2B696",
"G. c #DDC494",
"H. c #E9C48C",
"J. c #FDC984",
"K. c #F6CA8C",
"L. c #FDCC8D",
"P. c #FDCD92",
"I. c #EBD39D",
"U. c #FED195",
"Y. c #F4D39F",
"T. c #FCD49E",
"R. c #D0CFB0",
"E. c #E7C5AF",
"W. c #F3D6A7",
"Q. c #E4DCBB",
"!. c #97D6D3",
"~. c #AAC5C5",
"^. c #A8C9C9",
"/. c #BFCAC3",
"(. c #B1D9CC",
"). c #A6DDD9",
"_. c #BFD5D4",
"`. c #81DCE5",
"'. c #ABE1E3",
"]. c #C6DCC7",
"[. c #DCD3C8",
"{. c #DDDCD6",
"}. c #E7DDD5",
"|. c #E7E8E9",
" X c #F9EFE4",
".X c #FEFCFB",
/* pixels */
"&.#.=.1.4.6.6.3.$.,.=.1.4.y 2 t ....5 , v 6.3.%.&.%.5.1.=.4.%.M ",
"C ^ *.*.*.1.1.` E ` *.*.$.S 2 , 1 8 < 2 | 1.,._ L _ #.$.#.,./ + ",
"C / $.>.*.,.1.` E ) >.>.,.*.t 2 9 0 r r c v } Y H P I ( ( I J o ",
"C / *.*.*.,.1.` K ) ..1.X.e 2 g g g g h g g g g g f a L L I m . ",
"G ( >.>.*.=.1.` T ) >.] , , 0 g g g g g g g g g g g g l W _ G . ",
"G _ <.,.*.=.,.` T ) ] 2 , 7 g g g g g g g g g g g g g g j | / O ",
"G _ 1.,.*.,.1._ I W 8 , , 0 g g g g g g j g g g g g g g g l R O ",
"K ` ,.,.*.,.,._ L s 2 , , 0 g g g g g g g g g j g g g g g h Y + ",
"K ` 1.<.*.,.,._ L w < < 2 g g g g g g g g g g g g g g g g g s O ",
"H ` ,.,.*.,.,.( G 3 , , 2 g g g g g g g g g g g g g g g h g k O ",
"G _ >.*.*.,.1.^ i 1 , , 2 g g g g h g g g g g g g g g g g g k + ",
"G ( #.*.>.,.,.^ p , < < , 0 g g g g g h g g g h z g g g g h Y @ ",
"- ( ..>.>.,.,.^ w , , < u u g { x j h h j h g { { g g g g j R @ ",
"C ( *.*.*.,.<._ 3 , , S ;.x g ;.;.7.7.7.-.-.-.F o.j g g g c _ @ ",
"C ( ` *.*.,.<.Y 1 , 2 F F z z ;.8.].k.(.L.J.J.8.7.-.o.{ l X._ @ ",
"C ( *.*.*.,.*.5 , , < D D g x :.Y.l.d.h.T.L.U.P.Q.'.I.o...=.@.@ ",
"G ) *.*.*. .9 , , , , 4 z g { 8.W.l.d.j.U.P.L.T.j.d.!.2.$.,.@.@ ",
"H ) *.*.*.e , < , x O.r g g ] 6.P.].k.R.L.L.L.W.g.f.!.2.>.1.@.@ ",
"H ) *.*.[ < , < , +.D.g g d & V C.G.Y.P.J.L.L.U.).`.F.[ >.,.@.@ ",
"H ) *.=.] < < < , 9 x g h B.e.b 9.i.r.x.R.Z.H.K.L.A.j O.5.,.@.@ ",
"G ( ..$...4 , , , , , 7 7 w &   y.y.y.q.n.0.b c.P.j g +.K.,.@.@ ",
"G ( *.,.1.y < < , < , , , , 1 : q.y.y.y.n.r.% ' +.j g O.5.,.@.@ ",
"C ^ ,.1.3...e , , < , , , , , d s.i.t.0.a.= 1 < 2 f v X.>.,.@.@ ",
"C _ 1.3.3.<...w , , < , , , 1 z.^.~.M.m.b.6 < < 2 R *.>.>.1.@.@ ",
"C _ 1.5.3.1.$.^ q 8 1 , , > * q.0.y.p.v.b.6 , , w ) *.*.>.,._ @ ",
"C ~ $.%.%.%.$.( P _  .y e * y.y.y.y.t.t.0.; 1 e U ` *.*.*.,._ @ ",
"C P ~ ~ ~ ~ ~ I K ` ,.,.$.b.t.t.y.u.y.i.y.r.q R I _ ,.>.*.=./ @ ",
"C L P P P P P K T ` ,.=.>.F.N.s.u.0.0.0.0.t.z.~ P _ ,.,.*.*./ + ",
"C ~ _ ` _ _ ` _ T ) *.*.,.#.=.Z.{._.~.~.~.].V.I P _ ,.3.1.=./ O ",
"C ( ,.,.>.,.,.` T ) *.*.*.*...E..X.X X}.|.}.V.I P _ 1.3.1.*./ O ",
"C _ >.>.*.,.,.` T ) *.>.*.*.*.E.Q.E.S.F.|.}.V.~ I _ 1.3.=.*./ O ",
"# C Z Q Q ! ! N m C Q Q Q Q J m # M Z ! [.{.Z C n Z ! ! Q Q N X "
};
