/* XPM */
static char *_97c03722e3f411fb00b2c3a65e3b45bMochtKP4Np6Rf4tf[] = {
/* columns rows colors chars-per-pixel */
"32 32 203 2 ",
"   c #251D3F",
".  c #25203E",
"X  c #2C243D",
"o  c #2E303B",
"O  c #3B3639",
"+  c #747814",
"@  c #4B4925",
"#  c #46452B",
"$  c #4F5532",
"%  c #6F5B3D",
"&  c #5D6825",
"*  c #727330",
"=  c #2B2343",
"-  c #282B41",
";  c #2D244A",
":  c #342A44",
">  c #30274B",
",  c #33294D",
"<  c #3B2E48",
"1  c #293645",
"2  c #2E2353",
"3  c #322754",
"4  c #352B54",
"5  c #392E56",
"6  c #352A59",
"7  c #392E59",
"8  c #3B3055",
"9  c #3C315B",
"0  c #3B2F62",
"q  c #3F3363",
"w  c #433344",
"e  c #42324C",
"r  c #4C3949",
"t  c #523F48",
"y  c #483850",
"u  c #503D50",
"i  c #473B66",
"p  c #44366B",
"a  c #46396C",
"s  c #4A3C73",
"d  c #30414F",
"f  c #314952",
"g  c #36535C",
"h  c #3F5F61",
"j  c #3E6471",
"k  c #4B4644",
"l  c #53414A",
"z  c #5B424A",
"x  c #5A5549",
"c  c #494353",
"v  c #574351",
"b  c #634A4C",
"n  c #674B4C",
"m  c #76574F",
"M  c #6D5354",
"N  c #775751",
"B  c #6E6A5B",
"V  c #786D5D",
"C  c #6F715F",
"Z  c #7C7654",
"A  c #544966",
"S  c #564B6A",
"D  c #4F4177",
"F  c #50427E",
"G  c #6B606A",
"H  c #6F7260",
"J  c #907B38",
"K  c #935B4C",
"L  c #9B654E",
"P  c #9E664E",
"I  c #8A6355",
"U  c #8E6B51",
"Y  c #876758",
"T  c #986B56",
"R  c #99755B",
"E  c #A06C50",
"W  c #A57A5D",
"Q  c #AB7F5D",
"!  c #B97F56",
"~  c #B37D5E",
"^  c #AF7F60",
"/  c #BA7D62",
"(  c #5A9B45",
")  c #7E8045",
"_  c #898D0E",
"`  c #959313",
"'  c #9BA312",
"]  c #A5AB0F",
"[  c #AAB408",
"{  c #B2BC0C",
"}  c #A5AC14",
"|  c #A8AF1A",
" . c #8A8E2B",
".. c #8F912E",
"X. c #949437",
"o. c #AB8F3C",
"O. c #9EA526",
"+. c #AAAF34",
"@. c #BAC41E",
"#. c #BDC627",
"$. c #C0C83B",
"%. c #AA815E",
"&. c #B5895D",
"*. c #B88A5B",
"=. c #BB9358",
"-. c #90B95B",
";. c #B9A349",
":. c #B0AA4B",
">. c #A9AB55",
",. c #BBB65B",
"<. c #AA8361",
"1. c #B28161",
"2. c #BE8465",
"3. c #B58A64",
"4. c #BD8C65",
"5. c #BD9161",
"6. c #B1B277",
"7. c #C28D52",
"8. c #C3925F",
"9. c #C3AC50",
"0. c #C48665",
"q. c #CB8763",
"w. c #C48B66",
"e. c #CD8865",
"r. c #C58969",
"t. c #C88A68",
"y. c #C29361",
"u. c #C49B63",
"i. c #C79369",
"p. c #CD936B",
"a. c #CD9C6C",
"s. c #D29667",
"d. c #D29861",
"f. c #D2956B",
"g. c #D9966A",
"h. c #D39A6D",
"j. c #DB9C6D",
"k. c #CF9371",
"l. c #D49E70",
"z. c #CBA06F",
"x. c #D4A06C",
"c. c #DEA16E",
"v. c #CBA679",
"b. c #D6A673",
"n. c #DCA772",
"m. c #D6AA77",
"M. c #DDAB73",
"N. c #E2A46F",
"B. c #E4AB6F",
"V. c #E1B46D",
"C. c #E3A670",
"Z. c #E8A770",
"A. c #E3AB72",
"S. c #E6B375",
"D. c #E8B879",
"F. c #BCC15F",
"G. c #8EC76D",
"H. c #B0C263",
"J. c #CCD448",
"K. c #C3C856",
"L. c #CBD253",
"P. c #D5DC59",
"I. c #D6DB68",
"U. c #CED270",
"Y. c #D5DA76",
"T. c #E1DF70",
"R. c #DEE56E",
"E. c #E5EB73",
"W. c #E0E47A",
"Q. c #E7EE7E",
"!. c #5F4C86",
"~. c #5A498E",
"^. c #5E4D94",
"/. c #67539A",
"(. c #7C6393",
"). c #A77A85",
"_. c #AE8384",
"`. c #AF8789",
"'. c #B18687",
"]. c #BCBD85",
"[. c #D4AA83",
"{. c #BAE188",
"}. c #C8C986",
"|. c #D8DA88",
" X c #DEDE96",
".X c #EED191",
"XX c #DBE588",
"oX c #DBEC93",
"OX c #E9EA8C",
"+X c #E6EB96",
"@X c #F2EC94",
"#X c #EAF393",
"$X c #F1F694",
"%X c #F5F997",
"&X c #F5FA9D",
"*X c #E9E3A3",
"=X c #EFF4A2",
"-X c #EEFAA6",
";X c #F2F3A4",
":X c #F6FBA4",
">X c #FAFEA4",
",X c #FBFEAB",
"<X c #FBFEB0",
/* pixels */
"b.n.B.S.S.D.D.Y 4 !.'.V.S.S.B.C.M.A.A.S.A.[./.p t z.S.A.B.S.M.*.",
"0.f.N.N.N.A.b.l 6 a /._.N.N.N.g.s.j.A.A.[.(.F 7 , W n.c.N.C.h.E ",
"2.p.N.C.N.A.<.: 9 7 ~./.).`._.).)._.`.'.(.~.y 9 , n e.p.p.p.0.L ",
"2.f.c.N.N.M.R = 9 6 7 /.^.~.~.~.~.~.~.~./.s 0 7 3 z 0.r.q.r.~ K ",
"0.f.C.C.N.A.R = 9 5 p s 9 7 8 5 5 5 5 5 a s 5 5 4 z f.h.f.f.0.L ",
"2.h.M.A.N.A.R . , a 9 7 7 7 7 7 7 7 7 7 7 9 p 5 ; b n.b.v.N.s.P ",
"r.j.A.A.C.A.4.O 7 a 7 7 0 i S S S S A p 7 7 a p . I C.M.M.n.s.P ",
"q.j.A.A.N.A.n.t 3 9 7 a G X.} ] ] } O.V D 7 7 a : *.b.m.M.v.s.P ",
"q.j.A.A.N.A.<.8 9 9 A X.[ { [ @.#.[ [ [ O.B q 7 5 N l.b.A.C.g.P ",
"q.h.A.A.N.p.M 4 5 q Z @.P.W.U.$X&XY.P.J.@...i 7 7 y 1.C.C.C.s.P ",
"q.f.n.C.p.M 8 9 8 x :.P.XXoX=X,X>X:X+XXXI.K.x 7 7 7 u 1.N.B.h.P ",
"2.f.N.Z./ o ; 8 4 * OX+XH.( G.-X,X{.( -.|.>X+.: e 2   N C.A.x.E ",
"2.p.N.N.N.0.M : - O >.&X<XoXoX+X X+XoX-X,XU.$ = - z W c.C.A.x.E ",
"/ f.c.C.C.A.M.^ b t % >.}.+X=X|.U.;X=X X6.J t z I p.A.A.N.A.x.E ",
"2.f.c.C.C.C.A.f.2.i.a.&.R H H C C C C V Q i.f.r.r.l.A.A.N.A.x.E ",
"2.f.c.C.Z.C.A.l.r.h.A.i.< 1 h 1 o g d . U C.c.f.t.[..XZ.N.A.x.E ",
"0.g.N.N.C.A.M.f.r.f.3.w . h j & _ g j 1 X T n.p.r.*X@XC.C.A.j.E ",
"q.g.N.N.C.A.A.h.q.p.N ; - 1 $ O.#.& f - > r i.k.y.OX.XB.C.A.x.E ",
"e.g.N.N.N.C.A.h.t.~ c 8 3 # O.Q.&X#.& = 7 5 I 0.9.T.B.N.N.A.x.E ",
"q.g.c.N.C.A.A.j.e.N 4 9 : O.Q.>X,X%X$.@ 6 5 e o.} 9.c.N.B.A.x.E ",
"0.f.j.C.A.A.n.f./ e 5 7 k Y.,X>X>X,X$X) 2 9 , + ` 7.N.N.N.A.x.E ",
"0.s.C.Z.S.A.j.f.T 4 7 2 6.R.#X#XW.:XR.XXc 5 4 @ o.g.N.N.N.A.x.E ",
"2.k.C.A.A.A.C.r.r ; 7 ; ].I.U.Y.+.+XK.&Xc 6 4 X E g.N.N.N.A.x.E ",
"2.l.A.S.A.A.f.b = 5 7 : }.#X,.>. .F.R.:Xx 4 9 ; w ~ N.N.N.A.x.E ",
"2.l.A.S.S.z.M 3 7 5 6 @ E.,XE.} ' J.&X&X .> 4 7 > r 1.C.C.A.x.E ",
"2.p.n.z.Y u 8 6 5 5 6 # E.,X>X$X$X&X,X>X .; 5 7 5 4 e M ^ C.h.E ",
"2.r.2.v 2 5 5 5 5 5 3 @ E.,X>X<X,X,X:X>X .3 5 5 6 5 5 4 e 1.h.P ",
"2.r.2.M < ; 4 7 , 5 5   }.>X:XOXOX&X>X:Xx 3 9 , 5 4 ; , b 0.d.P ",
"2.p.l.c.w.m < = = ; ;   +.%XI.` _ #.;XI.O ; : = = : z 3.S.A.s.P ",
"2.f.A.C.B.c.3.I z w w b  .L.+.*.0.o.P.| % w w r N R b.D.A.A.s.P ",
"2.f.C.C.N.C.S.j.0.0.i.s.7.,.;.p.r.=.,.:.d.p.i.1.r.j.A.A.B.B.s.P ",
"W 3.5.y.y.u.u.=.! *.8.8.8.=.=.&.Q &.*.=.y.8.4.&.%.5.a.u.=.8.*.K "
};
