/* XPM */
static char *_fc7101b6f7c4c11b24d7a94f2fe6b94XhuvPG157qImOx4U[] = {
/* columns rows colors chars-per-pixel */
"32 32 113 2 ",
"   c #945B4C",
".  c #8E6447",
"X  c #9A624D",
"o  c #98624E",
"O  c #A0674F",
"+  c #A0684F",
"@  c #A06A50",
"#  c #A16D52",
"$  c #A97B5D",
"%  c #AE7F5F",
"&  c #BA8057",
"*  c #BF8F5F",
"=  c #BD8064",
"-  c #B78860",
";  c #BA8B60",
":  c #BA8B61",
">  c #BE9465",
",  c #CC8767",
"<  c #C38568",
"1  c #C28569",
"2  c #C48568",
"3  c #C48769",
"4  c #C88668",
"5  c #C48869",
"6  c #C68A6A",
"7  c #C78F69",
"8  c #C78C6B",
"9  c #C98B6A",
"0  c #CD8968",
"q  c #C88D6B",
"w  c #C98E6B",
"e  c #CC8F68",
"r  c #CD8E6B",
"t  c #D08867",
"y  c #D28967",
"u  c #D18A67",
"i  c #D38A67",
"p  c #C49462",
"a  c #C69662",
"s  c #C69663",
"d  c #C79763",
"f  c #C99864",
"g  c #C89C66",
"h  c #CF926B",
"j  c #CE946D",
"k  c #CF966E",
"l  c #D4936B",
"z  c #D0936C",
"x  c #D2956C",
"c  c #D3956C",
"v  c #D0976E",
"b  c #D4956C",
"n  c #D5976D",
"m  c #D7976C",
"M  c #D8946B",
"N  c #D9956B",
"B  c #D8966B",
"V  c #DB976B",
"C  c #D3986E",
"Z  c #D39A6F",
"A  c #D6986C",
"S  c #D59B6F",
"D  c #D49C6F",
"F  c #D89B6A",
"G  c #D99C6B",
"H  c #D89B6E",
"J  c #DC986C",
"K  c #DC9B6D",
"L  c #DB9C6E",
"P  c #DA9E6F",
"I  c #DC9E6F",
"U  c #D49C70",
"Y  c #D59D70",
"T  c #C8A464",
"R  c #CBA469",
"E  c #DAA26E",
"W  c #D6A776",
"Q  c #D8A071",
"!  c #D9A271",
"~  c #D8A470",
"^  c #DAA771",
"/  c #DEA973",
"(  c #DFA974",
")  c #DEAF76",
"_  c #E2A36F",
"`  c #E3A46F",
"'  c #E2A470",
"]  c #E3A470",
"[  c #E2A771",
"{  c #E4A570",
"}  c #E3AB73",
"|  c #E5AB70",
" . c #E6AC70",
".. c #E5AC73",
"X. c #E3AE74",
"o. c #E2AE75",
"O. c #E4AD74",
"+. c #E5AD74",
"@. c #E0B077",
"#. c #E3B076",
"$. c #E7B174",
"%. c #E7B374",
"&. c #E4B176",
"*. c #E5B176",
"=. c #E6B377",
"-. c #E2B677",
";. c #E8B677",
":. c #E7B877",
">. c #E4B378",
",. c #E8B778",
"<. c #E9B979",
"1. c #E9BC7B",
"2. c #EAC17E",
/* pixels */
"W / | $.,.1.2.>.] ] O.$.<.$...| / o.;.;.<.<.=.) W ) $.$...:.-.& ",
"1 c { { { ..$.L y J { { { { ] N y I $.| { ..>.Y 1 c _ _ _ } ^ X ",
"1 c { { { ..>.I y V ] | O.{ { N y P $.o.' | o.U 1 9 l k h v h o ",
"1 c { { { ..>.L i V { ..$.o.{ N 0 P $.} ' } o.U 1 2 5 5 5 5 =   ",
"1 n O.{ { ..$.I y V ] O.>.| ' c 4 P >.} { { ' N , S P U D A e X ",
"1 S ;.O.{ ..>.L y S { | $.| _ k 5 U $.| { { ' N u Q o.| _ _ F + ",
", I >.O.{ O.>.H 4 P O.O.>.} ] k 1 U $.O.{ { ' N u J ......` F + ",
"u L $.O.{ O.$.Z 2 U >.>.$.O.] c 5 U =.O.{ { ' M u J ] | %.| F O ",
"u I $.O.{ ..>.Y < Y >.>.$.o.o.c 1 U >.O.] ] _ l 4 H { { ..{ I X ",
"t S >...{ ..>.Y < C o.O.o.o.o.c 2 U $.| ] _ _ j 2 n { { ` ` I + ",
"4 n  .` { O.O.U 1 w Y j U c n r 0 P %.| ] { _ h 5 N ] { _ ..E + ",
"< S { { ] | >.U 1 1 2 2 5 5 1 4 y P >...{ { ' l 5 n ] { ` ..^ # ",
"< l { { { O.>.Y 1 k Q Q U Q U n y Q ;.| { { _ h 5 U | ..` ..^ # ",
"1 c { { { | >.l 1 U >.$.$.$.$.H y Q $...{ { _ k 5 U $...{ ..^ # ",
"1 l ' { { ..>.Y 5 U $.O.o.O.$.P u I >...] { _ k 5 P %.O.{ ..^ # ",
"2 n ] { { O.>.Y 1 U $.} ' ..$.P u I O...] ' ' c 5 U >...{ ..^ # ",
", N { { ] ..O.Y 1 n | { { O.} U 4 U $.$.o.O...k 5 U >...{ ..^ # ",
"i N { { { ..>.Y 2 n ] { { o.O.U 1 U o.) } o./ c 4 U O...{ ..^ # ",
"y J { { { ..,.H 0 N { { { | o.U 1 8 c k k k n r 0 H O.{ { ..^ # ",
"0 N { { { ..| S u N { { { ..o.U 1 1 8 5 9 5 5 , y I ] ] { ..^ # ",
"4 b ` | O...| n 5 n { { { O.$.Y 1 k Q Q Q Q Q n i J { { { ..^ # ",
"2 n { | >.O.{ n 5 n { { ' ..o.Y 1 U >.$.$.>...H i V { { { ..^ # ",
"2 n O.$.$.o.' l < n { | o.| ' c 1 U $.O.| $.o.S i J { { { ..^ # ",
"1 Y >.>.>...' n 1 n { ..$.} ' j 5 U $.o.] O.>.P i J { { { ..^ # ",
"1 U >.>.>.o.o.k 5 U | | O.] ' c 2 n | { { O.O.H i J { { { O.^ # ",
"< U [ o.o...} C 5 U $...{ { ' j 5 n ] { { O.O.n i J { { { O.^ # ",
"< 8 k k j C j r 0 P =...{ { ' l 1 n { | O.O.' c 5 U O.{ ` | J @ ",
"= 5 5 q 8 5 3 0 y I O...{ { ' n 1 n { O.O.| _ j 5 I $.O.` ` H @ ",
"1 j Q Y H H ! n u I ` { ] ] ' l 1 U O...| { ' l 5 Q >.o.O.` I + ",
"1 Y $.| ] ..>.H u J ` { { _ _ j 2 U O.{ { { ' j 5 U $.$.O...F X ",
"1 n ..' ' ..>.J u J { ` { { ' l < U ..{ ` { P k 2 U %... .` F + ",
"$ - s s s f T s & ; s s s d f : % : f s s s p - : > R g d d * . "
};
