/* XPM */
static char *result[] = {
/* columns rows colors chars-per-pixel */
"32 32 186 2 ",
"   c #6A7974",
".  c #935B4C",
"X  c #8C6245",
"o  c #97604D",
"O  c #9E664E",
"+  c #9F694F",
"@  c #A06C50",
"#  c #A37859",
"$  c #B77F58",
"%  c #947E7E",
"&  c #BA7D61",
"*  c #A57873",
"=  c #D65150",
"-  c #ED4D4D",
";  c #FE4646",
":  c #FE4947",
">  c #F54E4B",
",  c #FD4C4A",
"<  c #F5544C",
"1  c #FB534C",
"2  c #F25B4F",
"3  c #FD5555",
"4  c #F65C51",
"5  c #FA5E53",
"6  c #FD5A5A",
"7  c #DC795C",
"8  c #E96454",
"9  c #F96357",
"0  c #F36D56",
"q  c #FD6D5A",
"w  c #EA755A",
"e  c #EF7A5D",
"r  c #F77456",
"t  c #F17B5D",
"y  c #FD7D5E",
"u  c #FE5E65",
"i  c #D06E6D",
"p  c #C97D65",
"a  c #DC7A62",
"s  c #D27D7D",
"d  c #FE6565",
"f  c #FC6B64",
"g  c #EA7868",
"h  c #F77267",
"j  c #FD7364",
"k  c #FC7D63",
"l  c #F77668",
"z  c #F87B6A",
"x  c #59837C",
"c  c #AE815E",
"v  c #B7895C",
"b  c #BB8B5E",
"n  c #8F8271",
"m  c #9D8575",
"M  c #BF8365",
"N  c #BD9161",
"B  c #EF805F",
"V  c #FD8453",
"C  c #FC9456",
"Z  c #FDAA5F",
"A  c #C38665",
"S  c #CB8763",
"D  c #C48A65",
"F  c #CC8866",
"G  c #C38668",
"H  c #C68A69",
"J  c #CC8D6A",
"K  c #DE8462",
"L  c #D48C67",
"P  c #D98968",
"I  c #C29460",
"U  c #C49B63",
"Y  c #CE926B",
"T  c #C39D6F",
"R  c #D29667",
"E  c #D2956C",
"W  c #DB956B",
"Q  c #D49B6D",
"!  c #DA9B6D",
"~  c #DA9D71",
"^  c #E48964",
"/  c #E78866",
"(  c #EB8A64",
")  c #EE866B",
"_  c #ED8A6B",
"`  c #FD8463",
"'  c #F58868",
"]  c #EB9367",
"[  c #EB916B",
"{  c #E59D6D",
"}  c #EA996C",
"|  c #FD9C60",
" . c #FC916E",
".. c #E89A70",
"X. c #FC9872",
"o. c #D4A06C",
"O. c #DEA16E",
"+. c #D7A677",
"@. c #DCA671",
"#. c #DEAB73",
"$. c #C8B17F",
"%. c #E2A36F",
"&. c #E4AB6F",
"*. c #FDA866",
"=. c #FCB463",
"-. c #E3A670",
";. c #E2AB72",
":. c #E8AA73",
">. c #FDA479",
",. c #FCA87A",
"<. c #E5B375",
"1. c #E8B576",
"2. c #E9B479",
"3. c #E9BB7B",
"4. c #F8B87A",
"5. c #FDC177",
"6. c #FDC37B",
"7. c #588987",
"8. c #5E9595",
"9. c #67908A",
"0. c #7A9A8C",
"q. c #629696",
"w. c #629798",
"e. c #669999",
"r. c #6B9B9B",
"t. c #7B9794",
"y. c #779D95",
"u. c #76A3A3",
"i. c #05CBFD",
"p. c #0BCEFD",
"a. c #14CEFC",
"s. c #1BCDFB",
"d. c #0CD0FE",
"f. c #6AD8E9",
"g. c #7EDCE8",
"h. c #8A8282",
"j. c #969187",
"k. c #93A99A",
"l. c #83ACAC",
"z. c #85AFB0",
"x. c #8AB1B1",
"c. c #9DB7B5",
"v. c #ACB9B0",
"b. c #FD9D83",
"n. c #C5AC8F",
"m. c #D9A98C",
"M. c #C5B39F",
"N. c #D3B593",
"B. c #EFB68D",
"V. c #F7B788",
"C. c #EAAF91",
"Z. c #D1B7A7",
"A. c #B8C0B1",
"S. c #E1C28E",
"D. c #F6C487",
"F. c #FDC986",
"G. c #FBC589",
"H. c #F6C98C",
"J. c #FDCC8D",
"K. c #ECCC9A",
"L. c #FDCE91",
"P. c #F4CE98",
"I. c #FDD191",
"U. c #FFD39A",
"Y. c #E9D5A7",
"T. c #F4D6A4",
"R. c #E1CDB8",
"E. c #81D8DA",
"W. c #92DADC",
"Q. c #9ADDDF",
"!. c #ACC6C6",
"~. c #B3CBCB",
"^. c #A9D5C6",
"/. c #B0D3C4",
"(. c #84DAE0",
"). c #93DEE4",
"_. c #D9DEC3",
"`. c #E0D3CB",
"'. c #F4DCCB",
"]. c #E7DED8",
"[. c #CEE0CE",
"{. c #CAE0D0",
"}. c #E8E9E9",
"|. c #F9F2ED",
" X c #F7F8F8",
".X c #FDFDFC",
/* pixels */
"+.O.&.<.<.3.3.<.+.;.;.<.2.] , ; ( -.t 4 t 1.<.#.+.#.<.;.&.1.#.v ",
"M E O.&.%.;.;.! P _ _ _ _ ' 5 , 4 4 ; ; 0 ;.;.Q H Q O.O.O.;.Q + ",
"M Y O.%.-.{ ' h h d d d d d d d d 6 , 0 { ;.#.E G H Y Y Y Y D o ",
"M Q %.%.[ f d d d d d d d d d d d d 9 1 0 { #.E G G H G G H $ . ",
"M E ;...d d d d d d d d d d d d d d d 3 ; 1 / E F E Q E E E D O ",
"M Q ;.z d d d d d d d d d d d d d d d d : ; < K L ! ;.;.%.%.R O ",
"G ! ..d d d d d d d f d d d d d d d d d 3 ; ; 4 L ! ;.;.;.%.R O ",
"S ~ [ d d d d d d d d d d d d d d d d d 3 ; ; ; 7 E %.;.;.&.R O ",
"S ! _ d d d d d d d d d d d d d d d d d 6 ; ; ; 2 E %.-.-.-.R O ",
"S ! ) d d d d d d d d d d d d d d d d d 6 ; ; ; < R %.%.%.%.R + ",
"A E ) d d d d d f d d d d d d d d d d d 6 ; ; , ; K O.-.%.;.E @ ",
"A Y _ d d d d d ` j d d d d d d d d f d 3 ; ; ; ; w @.%.%.;.o.@ ",
"M E { h d f j k =.| k j j f d u d d d 9 , ; ; , ; w ;.%.%.<.o.@ ",
"M E ! { k *.4.6.5.6.5.6.4.V.V.*.C  .d k V 1 ; ; ; 9 %.&.%.;.o.@ ",
"M E O.-.} K.E.W.U.J.J.J.Y.f.g.T.=.Z f j =.V ; ; ; 1 } &.%.;.o.@ ",
"& E %.-.:./.a.d._.J.L.J.^.i.p.{.F.=.j d C C , ; ; ; B ;.%.;.o.@ ",
"A E { -.&./.s.d._.J.J.J./.p.a.[.F.=.` u j r ; ; ; ; , ( &.;.o.@ ",
"S W O.-.%.C.W.Q.U.J.L.J.T.(.).T.F.=.y d d 3 ; ; ; ; ; ; t -.o.@ ",
"S W O.-.{ z b.V.G.J.H.H.H.P.K.S.$.7 1 d d d 3 ; ; ; ; ; : ] o.@ ",
"S W { -.{ j d z a m k.A.0.0.y.9.x   = 6 d d 3 ; : ; ; : ; t o.@ ",
"A E %.%.;.l d g n 7.e.l.w.w.e.7.x 0.g ; u u 3 ; ; ; ; ; ; B o.@ ",
"A E %.;.<.} ' W N.k.u.x.q.e.e.q.* K.V.q 1 , ; ; ; ; ; ; , ] o.@ ",
"M Q #.;.2.V.G.D.L.B.j.r.w.w.e.t.>  .L.G.>.5 ; ; ; ; ; ; w ;.o.@ ",
"M Q ;.<.3.J.L.J.V.5 s !.!.~.!.c.- : X.I.L.,., : ; ; ; 0 %.;.o.@ ",
"M E <.<.<.B.<.Q p > m x.z.u.e.8.h.- ; q >.` ; ; ; 1 e ;.%.;.o.@ ",
"M Y @.;.@.@.@.E G p h.w.w.8.e.e.w.% - ; ; ; , < 8 ^ O.%.%.;.o.@ ",
"M J Y T Y Y Y J J j.r.e.e.e.e.e.w.r.i 1 0 e ( P F Q ;.%.%.&.E + ",
"M G M H G H H F J t.8.w.w.w.8.w.u.v.:.%.;.%.! E G Q ;.;.%.%.R + ",
"M Y o.Q Q Q o.E L M.c.x.x.x.c.A.Z.+.;.;.-.%.%.J G Q ;.:.;.-.R + ",
"M Q ;.;.%.;.;.! L ~ '. X X}.].m.A E -.-.%.%.! E H Q <.<.;.&.R + ",
"M E -.%.%.;.:.~ L W '..X|.].}.`.H Y ;.-.-.%.@.J H Q :.<.%.%.R + ",
"# M N I I U U b $ N R..XN.T n.n.# N I D I N N N c N U U I I v X "
};
