/* XPM */
static char *_49202282cbc454090746a54ca9b8946Dm9d8fzy0QXO359D[] = {
/* columns rows colors chars-per-pixel */
"32 32 217 2 ",
"   c #623845",
".  c #6D2963",
"X  c #752D69",
"o  c #793868",
"O  c #784D55",
"+  c #795056",
"@  c #7B4966",
"#  c #734A6B",
"$  c #765C75",
"%  c #863354",
"&  c #A5285F",
"*  c #853E7A",
"=  c #8B5A4E",
"-  c #8C6245",
";  c #9B654E",
":  c #9F664E",
">  c #886159",
",  c #936555",
"<  c #9A6653",
"1  c #9A6A5B",
"2  c #9D735F",
"3  c #A16C51",
"4  c #A26E5C",
"5  c #A86F5E",
"6  c #A2735E",
"7  c #A37859",
"8  c #AA7C5E",
"9  c #B97F56",
"0  c #804860",
"q  c #8B5D67",
"w  c #86477C",
"e  c #845976",
"r  c #8F587C",
"t  c #945A7A",
"y  c #AC4F78",
"u  c #8B6668",
"i  c #976D6C",
"p  c #9E7065",
"a  c #9F776D",
"s  c #8B6378",
"d  c #946472",
"f  c #9A7278",
"g  c #A26761",
"h  c #A37562",
"j  c #A97A61",
"k  c #A67969",
"l  c #B47D62",
"z  c #BC7F63",
"x  c #A77B72",
"c  c #AD815E",
"v  c #B4845D",
"b  c #B6895D",
"n  c #BA8C5E",
"m  c #B38362",
"M  c #BE8465",
"N  c #BC826A",
"B  c #B78868",
"V  c #BB8C6B",
"C  c #BD9262",
"Z  c #AD8175",
"A  c #B38574",
"S  c #BC8A71",
"D  c #C38665",
"F  c #CB8763",
"G  c #C58B66",
"H  c #CB8A65",
"J  c #C38669",
"K  c #C48969",
"L  c #C98B69",
"P  c #D28B67",
"I  c #D38E68",
"U  c #C39461",
"Y  c #CC9366",
"T  c #C49B63",
"R  c #CD936B",
"E  c #C9966C",
"W  c #CE9B6C",
"Q  c #D39667",
"!  c #D09C67",
"~  c #D2946B",
"^  c #D99569",
"/  c #D39A6E",
"(  c #DA9C6D",
")  c #C18D70",
"_  c #CC9573",
"`  c #CA9A7C",
"'  c #D89E71",
"]  c #D4A06C",
"[  c #DEA16E",
"{  c #DBA572",
"}  c #DEAA73",
"|  c #D6A778",
" . c #DDB072",
".. c #E2A36F",
"X. c #E3AB6F",
"o. c #E9A86E",
"O. c #E3A670",
"+. c #E3AB72",
"@. c #E9AD72",
"#. c #E5B375",
"$. c #EAB274",
"%. c #E8BA7A",
"&. c #A93D85",
"*. c #CB3A8E",
"=. c #8D5484",
"-. c #95528B",
";. c #94558B",
":. c #945D8B",
">. c #A75A8E",
",. c #B05F93",
"<. c #876785",
"1. c #946889",
"2. c #976F8D",
"3. c #8E788B",
"4. c #967593",
"5. c #A6768E",
"6. c #A8729C",
"7. c #A5789E",
"8. c #B66AAD",
"9. c #B871A4",
"0. c #B27FAB",
"q. c #CF5398",
"w. c #F25F95",
"e. c #D16786",
"r. c #DD659F",
"t. c #D87698",
"y. c #E96989",
"u. c #F3668A",
"i. c #EE7B8C",
"p. c #E56596",
"a. c #F26797",
"s. c #E97399",
"d. c #EE7499",
"f. c #F27797",
"g. c #F47C94",
"h. c #C35EB9",
"j. c #CC73A5",
"k. c #E87DA9",
"l. c #E77ABD",
"z. c #D071C6",
"x. c #ED79D0",
"c. c #92939E",
"v. c #BA9080",
"b. c #AD8C91",
"n. c #B39998",
"m. c #9F9AA4",
"M. c #B686A9",
"N. c #BC90B5",
"B. c #A4ABB1",
"V. c #AAACB3",
"C. c #B1A0B3",
"Z. c #B6B1B2",
"A. c #C99F82",
"S. c #D49681",
"D. c #CD9790",
"F. c #C89699",
"G. c #E7869C",
"H. c #F2819B",
"J. c #E7919B",
"K. c #C9A98B",
"L. c #DAA789",
"P. c #D4A699",
"I. c #DB96AC",
"U. c #C591B3",
"Y. c #C79BBB",
"T. c #DE96B5",
"R. c #DB9CBB",
"E. c #E484A3",
"W. c #E58BAB",
"Q. c #E993AF",
"!. c #E688B3",
"~. c #E797B8",
"^. c #E493BD",
"/. c #F196B1",
"(. c #C8B3AA",
"). c #D9AAB4",
"_. c #EBA2AE",
"`. c #E8A4B4",
"'. c #EFB2BE",
"]. c #D5C2B3",
"[. c #B8BBC0",
"{. c #CD81C3",
"}. c #C99CC3",
"|. c #DA98CA",
" X c #ED88CA",
".X c #F482CF",
"XX c #EA9BC8",
"oX c #F49EC9",
"OX c #FB98DC",
"+X c #DCA7C4",
"@X c #C9B2C6",
"#X c #DFB1DD",
"$X c #E8A8CC",
"%X c #F3AAC4",
"&X c #E6B7CA",
"*X c #F6B8C4",
"=X c #E8AFDE",
"-X c #F9A1D0",
";X c #E9BCD5",
":X c #EAB6E3",
">X c #F4B0E1",
",X c #BBC3C9",
"<X c #C8C7C7",
"1X c #C4C4CE",
"2X c #D4C9C2",
"3X c #CFCCD3",
"4X c #CDD5D8",
"5X c #D7D6D8",
"6X c #F8C1D3",
"7X c #E5C6E3",
"8X c #E2D8E3",
"9X c #E5EAEB",
"0X c #E6EFF1",
"qX c #EBEEF0",
"wX c #EBF2F3",
"eX c #F1F4F6",
"rX c #F5F8F8",
/* pixels */
"| [ X.#.#.%.%.#.} +.X.#.#.#.X.+.} +.#.#.%.#.#.} |  .L. . .#. .v ",
"M / [ ..X.+.#.( P ^ [ ......( ^ P ( #.+.X.+.+./ S K.3XC.K.| ! 3 ",
"M ~ [ ....+.+.( P ^ ..X.+.....^ P ( +.+...+.+./ N n.1X<.$ b.V ; ",
"M ~ ......+.+.( P ^ ..+.#.+...^ P ( +.X...+.} R b.Y.C.[.$ $ b.- ",
"M ~ +.....+.+.( P ^ [ +.+.+...~ L ( +.+.O.O...S }.N.2.$ B.c.n.- ",
"J / +.+...+.+.( P ^ O.+.$.+.( R K / +.O.O.O.~ Y.}.7.;.w # c.b.< ",
"D ( +.+...+.+./ L / +.+.#.+.[ ~ K / +.+...{ F.}.M.;.w X o M Y : ",
"G ( +.+...+.+.~ K / +.#.@.+.[ R K / #.+.' 2X@XM.:.w X o ) X.! : ",
"F ( +.+.O.O.+./ K / +.#.+.+.} ~ K / X...].0X4X4.-.X o J @...Q : ",
"F ( +.+...+.+.~ K W } } } +.} ~ L / ` Z.wXqX<XB.4.r N ......Q : ",
"D ~ ....O.O.+./ J L R _ R R E ) L K M.3X9X4XV.B.,X(.( O...X.! 3 ",
"D ~ [ ..O.+.} ~ J K K D S (.5X5X<Xn.6.C.4X[.B.V.,XS ......+.] 3 ",
"M ~ [ O...O.+._ K R / A.5XeXwXrXeX@X=.6.m.V.V.1Xe l +.X...+.] 3 ",
"M ~ ....o.+.+./ J / | 5XwXwXrXeXeX9Xm.w w 3.s $ O m { X...+.] 3 ",
"M R [ ..O.+.+./ K W ].qXwXwX9X4X5X8X3Xm.=.6.j.&.> j h B X.X.] 3 ",
"M ~ [ ....O.+.~ K A.5X8X7X7X+XT.R.+X+XY.0.j.x.*.+ ' { 1 6 +.] 3 ",
"F ^ [ O.O.+.+.~ J P.&XoX6X6X*X%X%X-X-XOXx.,.& % + 6 } $.8 7 / : ",
"F ^ ......+.+./ J I.%X*X'._._._./.Q.Q./.l.8.e 5 D j B O.o.m c : ",
"F ^ [ ..O.O.+./ D.XX^.~.G.G.J.E.G.t.r.k. Xz.=.5 P R k ~ X.| a < ",
"F ^ ..O...+.+.~ ).XXQ.k.d.f.f.a.a.p.k.l..Xh.0 M P ^ V S X. .b = ",
"J ~ ..O.+.+.O._ $XXX!.d.u.f.H.a.w.r.!.l.x.{.=.D P ^ ( x ..+.W u ",
"D I { +.+.+.( P.%X~.k.u.g.g.a.u.p.W.!. XOXM.q R P ^ ..Z ( X.W u ",
"N ~ O.@.#.+.' `.'.!.f.u.u.f.d.s.T.T.XX>X).M.s H P ^ [ Z [ #.! i ",
"B / } #.#.@.L.XX~.s.u.i.y.s.W.T.|.XX;XP.( i @ F I ^ R A X.} ! i ",
"D / +.#.W m D.XXI.e.y.p.p.q.8.8.U.Y.v.G V r . g ^ I k _ o.+./ u ",
"M R V c 8 V I.T.t.e.y y >.6.M.b.k Z B 8 s ;.* 0 4 3 6 +.O.+.E u ",
"M 4 4 D L _ R.M.t r >.M.|.$XF.u , l ! T 2.:.=.@   O 5 L H B k , ",
"8 1 J K L A d :.9.}.#X:X).| { K 4 , , + 4.6.1.d z L 8 1 , 8 H : ",
"2 p W K A k A R.=X:X&XL.[ ..( ~ L ' @.V 4.7.2.h L / #.#.$.@.Q : ",
"z p a A _ } +./ S.` [ ....O.[ R J / @.E f 5.f J K ( +.#.+.X.Q : ",
"M R ( ..o.+.+.( P ^ ..O.o.....~ D / O...W 5.S ~ K ] @.+.+...Q : ",
"7 v C U U U T C 9 n G U U U U b c b C U U C B m c C T T U U b - "
};
