/* XPM */
static char *_ad2c52531334cc38ebcdaf448e4fce9Mmid6Sw8mmRGXzEY[] = {
/* columns rows colors chars-per-pixel */
"32 32 180 2 ",
"   c #4D4D4E",
".  c #57585A",
"X  c #5B5D5E",
"o  c #5E6062",
"O  c #636465",
"+  c #66686A",
"@  c #6A6D6E",
"#  c #6D6F70",
"$  c #6E7172",
"%  c #BD5851",
"&  c #916852",
"*  c #A56F54",
"=  c #BC7E57",
"-  c #896D66",
";  c #887168",
":  c #807873",
">  c #B36D6D",
",  c #DD4F4A",
"<  c #DD5858",
"1  c #E94E4C",
"2  c #FE4646",
"3  c #FE4947",
"4  c #FE4748",
"5  c #F54D4B",
"6  c #FD4B4B",
"7  c #FD5149",
"8  c #FB5B4D",
"9  c #E95353",
"0  c #FC5353",
"q  c #F65856",
"w  c #FD5B5B",
"e  c #DD675B",
"r  c #FD6A4E",
"t  c #F56B58",
"y  c #E87E5F",
"u  c #FD7751",
"i  c #C46969",
"p  c #DF6C6E",
"a  c #CE7961",
"s  c #DD7672",
"d  c #E96666",
"f  c #E2696A",
"g  c #FE6565",
"h  c #FE6A65",
"j  c #EC716D",
"k  c #FD7764",
"l  c #FD7D62",
"z  c #FD7B6B",
"x  c #E47476",
"c  c #4C857E",
"v  c #B4845D",
"b  c #BB8D5D",
"n  c #BE8364",
"m  c #BE9B64",
"M  c #AE957C",
"N  c #C98B5F",
"B  c #FD9759",
"V  c #FD9B59",
"C  c #FDB45F",
"Z  c #C38565",
"A  c #CB8763",
"S  c #C98965",
"D  c #C58A69",
"F  c #D28B67",
"G  c #C19361",
"H  c #CA9A6A",
"J  c #D2956B",
"K  c #D9956A",
"L  c #D39A6E",
"P  c #DA9C6D",
"I  c #C89176",
"U  c #EB8963",
"Y  c #FD8B66",
"T  c #E89869",
"R  c #FD9967",
"E  c #FD8571",
"W  c #F69C76",
"Q  c #DAA46F",
"!  c #D9A773",
"~  c #DDA674",
"^  c #E2A36F",
"/  c #E4AA6F",
"(  c #FDA763",
")  c #FCB26D",
"_  c #E3A670",
"`  c #E2AB72",
"'  c #FCA87C",
"]  c #E4B274",
"[  c #E8B878",
"{  c #FCBA77",
"}  c #FDC17F",
"|  c #7C7F82",
" . c #D47D80",
".. c #5E9597",
"X. c #7E8487",
"o. c #7E898A",
"O. c #639695",
"+. c #6C9594",
"@. c #6F9994",
"#. c #649798",
"$. c #659999",
"%. c #699B9B",
"&. c #78A4A4",
"*. c #858686",
"=. c #818688",
"-. c #82898A",
";. c #8F9F8C",
":. c #898F93",
">. c #889893",
",. c #91979C",
"<. c #92999D",
"1. c #A69B8B",
"2. c #9EA797",
"3. c #AFAC8A",
"4. c #A9B29A",
"5. c #BBB897",
"6. c #959CA1",
"7. c #B09CA0",
"8. c #82ACAB",
"9. c #98A6A7",
"0. c #9AB0AE",
"q. c #8EB5B5",
"w. c #98BCBC",
"e. c #A5ABAF",
"r. c #A5ADB2",
"t. c #AAAFB3",
"y. c #B0AEB4",
"u. c #A6B0B5",
"i. c #ACB5BB",
"p. c #B0B5B9",
"a. c #B5BBBF",
"s. c #DB8789",
"d. c #CB9284",
"f. c #C0979C",
"g. c #D7AA89",
"h. c #CEBC8F",
"j. c #C5A893",
"k. c #D1AF92",
"l. c #C9B997",
"z. c #D1B495",
"x. c #DDB296",
"c. c #ECBC86",
"v. c #FCB083",
"b. c #E7BD94",
"n. c #CF9FA2",
"m. c #D9B5A2",
"M. c #C1BFBC",
"N. c #BDC1AB",
"B. c #A5C0BD",
"V. c #DAC08C",
"C. c #E7C58E",
"Z. c #FDC886",
"A. c #F6CA8E",
"S. c #FCCB8D",
"D. c #FED08F",
"F. c #ECCD9D",
"G. c #FCC391",
"H. c #FCCE91",
"J. c #FDD092",
"K. c #FCD199",
"L. c #CAC0AD",
"P. c #CFCCBA",
"I. c #ECC8AB",
"U. c #FDDAAD",
"Y. c #FDDDB4",
"T. c #FDE1BD",
"R. c #B6BDC2",
"E. c #B8BDC2",
"W. c #BBC1C5",
"Q. c #BDC1C5",
"!. c #BDC3C7",
"~. c #BDC5CA",
"^. c #C0C6CA",
"/. c #E4CEC1",
"(. c #ECDDD5",
"). c #FCE5C7",
"_. c #FDEAD2",
"`. c #F5E9E1",
"'. c #F8F4F0",
"]. c #FEFEFD",
/* pixels */
"! ! / ] ] [ [ [ ~ ^ / l.~.~.^.E.^.~.^.E.R.u.R.R.u.R.u.u.| o.:.= ",
"Z J ^ ^ _ ` ] P J K ~ L.~.~.!.~.!.!.E.R.u.r.u.u.u.u.u.R.6.| =.* ",
"n J Q ^ ^ ` ` P F K g.!.E.~.~.E.!.!.^.E.R.R.R.u.R.R.u.u.9.X.=.- ",
"n J ^ ^ ^ ` ` P F K g.!.~.E.^.^.~.!.~.E.r.r.R.R.u.u.u.R.e.=.=.- ",
"Z L _ ` ^ / ` P F K k.!.!.^.t.6.r.E.E.r.t.r.,.<.u.u.i.i.e.=.=.- ",
"n L ` ` ^ / ` P F K k.!.^.E.# # # *.E.O <.=.X @ + r.i.i.r.=.o.; ",
"Z P ` ` _ ` ` P A P z.E.E.a.# t.t.@ p.O ,.=.| i.. ,.i.i.r.=.o.; ",
"S P ` ` _ ` ` L Z P z.^.^.a.# + O | E.O ,.| . o o r.R.i.r.=.o.; ",
"A P ` ` ^ ` ` L D L z.W.^.E.$ #   e.E.O ,.| + :.u.R.r.R.9.o.o.; ",
"S P ` ` ^ / ` L D L z.W.E.E.| p.:.| R.# 6.:.-.R.R.u.R.u.r.| | ; ",
"Z L _ _ ^ ` ~ L D D j.!.!.!.p.E.!.y.R.r.R.r.e.u.u.u.u.R.r.o.:.; ",
"n J T ^ ^ ` ` L Z a d.!.!.!.!.^.E.!.R.R.R.r.i.u.u.R.R.u.r.o.o.; ",
"n L P _ ^ ` ` y 5 2 4 d n.M.^.E.!.~.~.W.u.i.i.R.i.i.i.i.r.=.o.; ",
"= J ^ ^ ^ ` y 4 2 2 4 4 6 j  .s.s s.x x f f f p  .f.y.i.r.=.o.; ",
"n J ~ ^ ^ U 0 3 2 2 2 4 2 2 2 2 4 2 4 4 2 2 2 4 2 5 p y.u.=.o.- ",
"n J ^ ^ ^ t 3 3 2 2 2 2 2 2 2 2 2 4 4 4 2 2 4 6 6 6 4 q 7.-.> 9 ",
"A J ^ ^ T 8 2 4 3 2 3 2 2 2 2 8 r 6 4 2 0 w g g g g g w d > 5 3 ",
"A K ^ ^ T 6 2 2 2 2 2 2 3 3 u C ( B w w g g g g g g g g g q 2 , ",
"A K Q ` U 6 2 2 2 2 2 3 2 7 V ) ( Y h g g g g g g g g g g w 0 % ",
"A K T ~ U 4 2 2 2 2 2 2 2 3 V R u g g g g g g g g g g g g g w 5 ",
"Z J T ~ U 2 2 2 2 2 2 3 0 w g g h k Y g g g g g g g g g g g g 2 ",
"Z J ~ ] T 2 2 2 2 2 2 t g g g g E ) ( h g g g g g g g g g g g < ",
"n J ` ] ^ j i 1 2 2 6 g g g z ' G.J.} l g g g g g g g g g g g > ",
"n L ] ` b.0...o.< 2 2 q i F G.U.S.T.J.E g g g g h g g g g g g d ",
"n L ~ [ P.%.$.$.+.i 9 $ c c C.).Y.T.J.' g g g g h g g g g g g h ",
"n H Q c.B...$.$.#.q.m.N.c :.V.J._.U.S.Z.k g g g g h g g g g g g ",
"n D S x.q.O.$.$.#.4.H.F.;.@.V.A.K.J.S.H.R g g g g g g g g g g g ",
"n I m.(.8.O.%.$.#.5.S.5.@.%.3.A.S.H.H.H.{ k h g g g g g g g g g ",
"m.'.].].8.O.%.%.#.l.H.5.$.&.4.A.H.H.S.H.Z.( l g g g g g g g g f ",
"/.`.'.'.w.O.#.+.X.g.S.4.w.&.2.A.H.S.S.H.Z.k g g g g g g g g g % ",
"D g.b.I.L.>.;.M e t ' l.4.1.s v.D.U.Y.S.S.z g g g g g g g w j * ",
"* v m G m m G b = = N C.A.' g E D.T.).Y.S.z g g g g g g g t = & "
};
