/* XPM */
static char *_2c6fc0d944b4dd8e8d8c73ab9f17eebekyUwPpd9COEuTN7[] = {
/* columns rows colors chars-per-pixel */
"32 32 227 2 ",
"   c #6E2E64",
".  c #743365",
"X  c #7D3471",
"o  c #774D5F",
"O  c #7E5253",
"+  c #7F4E79",
"@  c #755473",
"#  c #7A6A7D",
"$  c #8A3A57",
"%  c #823876",
"&  c #935B4B",
"*  c #865B57",
"=  c #97604D",
"-  c #9E654E",
";  c #9F694F",
":  c #946559",
">  c #9B6E5B",
",  c #A06C50",
"<  c #A26E5D",
"1  c #A47658",
"2  c #AB7D5E",
"3  c #B57F5A",
"4  c #8F4A69",
"5  c #965965",
"6  c #844A78",
"7  c #875A78",
"8  c #926C61",
"9  c #986A6B",
"0  c #9D7777",
"q  c #AA7964",
"w  c #B57E63",
"e  c #B47E73",
"r  c #E07C7E",
"t  c #B2855E",
"y  c #B6895C",
"u  c #B9895A",
"i  c #AD8465",
"p  c #BD8464",
"a  c #B88569",
"s  c #BD8B6D",
"d  c #BF9160",
"f  c #B9926A",
"g  c #AD8173",
"h  c #B68877",
"j  c #BB8D73",
"k  c #BC9174",
"l  c #BE947F",
"z  c #C08E5E",
"x  c #C0985C",
"c  c #CBA35D",
"v  c #D1AC5D",
"b  c #D8B15F",
"n  c #E5BA5E",
"m  c #C38665",
"M  c #CB8763",
"N  c #C78965",
"B  c #CC8965",
"V  c #C38769",
"C  c #C58A69",
"Z  c #CA8C69",
"A  c #D28B66",
"S  c #D48D68",
"D  c #C29360",
"F  c #C49C62",
"G  c #CB9A65",
"H  c #C4946C",
"J  c #CD936A",
"K  c #CC9B6D",
"L  c #D39667",
"P  c #DB9D64",
"I  c #D2956B",
"U  c #D9956A",
"Y  c #D39A6D",
"T  c #DA9C6E",
"R  c #C49473",
"E  c #CD9571",
"W  c #CC9778",
"Q  c #D69C71",
"!  c #D29A77",
"~  c #D7A767",
"^  c #DAA467",
"/  c #DCAB63",
"(  c #D4A06C",
")  c #DEA26D",
"_  c #DBB167",
"`  c #C9A775",
"'  c #D3A371",
"]  c #DCA571",
"[  c #DDAA73",
"{  c #D5A779",
"}  c #DDB072",
"|  c #E4AF67",
" . c #E2A46E",
".. c #E5AB6D",
"X. c #F0A86A",
"o. c #E2B563",
"O. c #E5BA63",
"+. c #E6BA67",
"@. c #EBBD65",
"#. c #E5B46D",
"$. c #E9B46B",
"%. c #EABB6C",
"&. c #E2A570",
"*. c #E3AB72",
"=. c #EEA977",
"-. c #F4A476",
";. c #F5AB74",
":. c #F4A87C",
">. c #E5B274",
",. c #EAB975",
"<. c #E7BA79",
"1. c #EDB87B",
"2. c #F3B379",
"3. c #F5B678",
"4. c #ECC55F",
"5. c #F6D45E",
"6. c #F7D65E",
"7. c #F9DA5E",
"8. c #EDC365",
"9. c #EAC865",
"0. c #EDC269",
"q. c #F0C465",
"w. c #F2CC62",
"e. c #F5D261",
"r. c #F9DA61",
"t. c #EDC674",
"y. c #F3C57B",
"u. c #8E4C84",
"i. c #924E87",
"p. c #94548A",
"a. c #AD548A",
"s. c #8B6589",
"d. c #96668B",
"f. c #877587",
"g. c #9F7689",
"h. c #9B6292",
"j. c #967993",
"k. c #A26D9B",
"l. c #A57298",
"z. c #A2729C",
"x. c #AF77A1",
"c. c #D64799",
"v. c #EB688C",
"b. c #F26A8A",
"n. c #F17195",
"m. c #F07A90",
"M. c #D651A5",
"N. c #C57BB2",
"B. c #EB73AC",
"V. c #DD67C6",
"C. c #8E8493",
"Z. c #978398",
"A. c #B28688",
"S. c #BA9988",
"D. c #A3869F",
"F. c #ABA59F",
"G. c #A885A3",
"H. c #B285AB",
"J. c #AD9AAE",
"K. c #BC95B6",
"L. c #A1A6AD",
"P. c #A7A9AF",
"I. c #A9ADB3",
"U. c #ADB1B7",
"Y. c #B7B5BA",
"T. c #C8948F",
"R. c #F29385",
"E. c #ED8A9A",
"W. c #CCA282",
"Q. c #D4A285",
"!. c #CFAE91",
"~. c #D8AB96",
"^. c #D8B297",
"/. c #EDBB82",
"(. c #EFB98A",
"). c #F2B585",
"_. c #F4BC89",
"`. c #F3A992",
"'. c #EFB394",
"]. c #F0B195",
"[. c #C985A9",
"{. c #D798A2",
"}. c #CA9CB5",
"|. c #F08FAA",
" X c #E89EA4",
".X c #E792B9",
"XX c #D8A7A6",
"oX c #CDB0AD",
"OX c #EDA0AF",
"+X c #EDB6A9",
"@X c #F8B1AF",
"#X c #E8A5B5",
"$X c #EFB6BF",
"%X c #F4C789",
"&X c #F6D48B",
"*X c #EDCD94",
"=X c #CFC1BB",
"-X c #D1C3BD",
";X c #ECCCB1",
":X c #F5E9B6",
">X c #B5BCC2",
",X c #D38DC2",
"<X c #E99CC7",
"1X c #FD8CD5",
"2X c #D2A3C9",
"3X c #DFB3C0",
"4X c #E8A8C9",
"5X c #F2AAC1",
"6X c #F3AFCB",
"7X c #E7B0C6",
"8X c #F4B6C6",
"9X c #E9B7D6",
"0X c #BCC2C7",
"qX c #C3C4CB",
"wX c #D1CACB",
"eX c #D8D3C5",
"rX c #CDD2DC",
"tX c #D8D7D6",
"yX c #E5C2D7",
"uX c #DCDBE2",
"iX c #DDE2E5",
"pX c #E2E8EA",
"aX c #F4FAEB",
"sX c #EBEEF1",
"dX c #EAF3F4",
"fX c #F1F4F5",
"gX c #F4F7F9",
/* pixels */
"' [  .>.>.<.t.%.&.&.*.>.>.>...[ *.*.>.>.<.,.%.} ' } <.>.} ,.} u ",
"m I  . .&.*.w.0.S U  . .*.$...U S T *.*.&.#.w.{ =XoXW.) ) $.Y ; ",
"p I ) &. .0.r.e.P U  .&.$.e.@.U S T *.*.[ 9.r.` rXD.f.S. .w.c = ",
"p I  .$.e.7.7.7.5.@. .*.*.0...U S T *.0.5.7.9.}.P.Y.@ f.S.b d & ",
"p I &...@.6.7.7.e.O. .*.*.*.) I C T *.>.@.w.~.2XG.C.L.# I.W N = ",
"m Q *.*.&.$.7.w.U U  ...>.&.) J C Q [ *. .Q.}.H.h.6 @ C.F.' L - ",
"N Q >.*.&...w.^ B Y *.q.%.*.) I C Y [ ..E }.K.h.u.X . f _ ) L - ",
"N T *.*. .*.>.Y C ' q.r.e.$.) I C Q [ ^.wXK.k.i.X . t 7.5.$.L - ",
"M T *.*.&.*.*.K V Y 0.r.e.%.[ J V Y !.iXpXJ.p.%   9 o.6.$.&.L - ",
"M T *.*. .*.*.Y V I [ q.>.[ ] Y V S.eXfXiXU.Z.7 5 B  .$.&. .U - ",
"m U ] $...*.[ Y m C K L K R R D e }.uXiX0XL.>XY.p U T  . .*.Y ; ",
"p I  .6.$.&.*.Y _ J m l oXtXtX=Xj.x.qXqXP.I.0XA.N I  . . .*.( ; ",
"p ^ e.7.5.$.[ Y 4.~ !.iXdXgXgXaXG.u.G.P.P.U.j.< Z Y *.&. .*.( ; ",
"m ^ q.7.e.%.>.Y C W.uXsXgXgXfX:XeXf.+ s.j.7 o > w Y *.*...*.( , ",
"p I  .5.| *.#.) a -XsXsXdXuXwX*XeX3Xj.s.[.M.5 w : q ] *...*.( , ",
"p I  .| &.*.w.6.{ uXyX9X9X4X+X%X*X7X,Xx.c.M.$ p C q > Y $.$.( , ",
"M U ) &. .*.q.n XX6X6X8X8X@X_._.%X@X1XN.4 $ 5 * i &.H 1 q.0.^ ; ",
"M U )  . .*.>.W <X5X8X X]./.y.%X1.).|.V.j.9 ] a * E $.o.v q.o.1 ",
"M U  . . .-.] XX<X.X X`.2.2.2.;.=.).`.B.k.5 C S w e  .$.b _ ~ , ",
"M U  . . ...] 7X#X'.:.;.2.2.-.:.=.).).].k q C B B e Y  .o.f ( , ",
"V I &.&.*.*.~.4X.XE.R.;.2.;.-.-.=.)._.).` G ( I S e Q  ...h K ; ",
"m S ) *.*.*.#X$X.XB.b.R.:.;.;.3./.(.].XXj.w *.U S a Q &. .j R ; ",
"p I &.*.>.*.#X+XE.b.b.b.m.)././._.;X~.S.d.q ) Y A e Q &.*.k H ; ",
"p Q >.<.^ T.4X%XX.v.n.b.M.{./.%X*XW ..h   5 ' T A C )  . .k H , ",
"p Q D i < T.'.r.5.r 5 a.a.T.e.9.i 8 > d.X $ H A < /  . . .j K ; ",
"w > 2 K #.t.r.r.7.4.W N.<X}._ b V Z g s.i.+ O * u O. .Y s k Y ; ",
": q Z I G l +.r.6.&X;X$X~.E z y : > 0 z.h.7 > x v v c 2 s ) Y ; ",
"* N C g 9 9 {.r.&XyXXX&. ... .U w i g.G.l.l O.O.n O.O.8.$. .L - ",
"* 8 0 h H ) ! 9.Q.!  . .q.@.T J N J 0 G.l.i #.n o.0.0.0.$.*.I - ",
"w a ' .. .[ *.^ A U  .q.7.5.#.J V Y T g.g.Y T ^ _ +.%.>.*.*.L - ",
"p Y &.&. .*.*.T S U  ...e.q. .U C Y ..T E  .) I o.o.*.*.*.| L - ",
"1 p D D D F F y 3 u z z c G D y t y D z D D d t x F F F D d y & "
};
