/* XPM */
static char *_044433dbb4c47d5cebb2524d57d0847dsYTd8znRW3ocWWh[] = {
/* columns rows colors chars-per-pixel */
"32 32 190 2 ",
"   c #617D7B",
".  c #FE3E45",
"X  c #935B4C",
"o  c #8C6245",
"O  c #97604D",
"+  c #9E664E",
"@  c #9F694F",
"#  c #A06C50",
"$  c #A37859",
"%  c #B77F58",
"&  c #A07168",
"*  c #CC5354",
"=  c #FE4646",
"-  c #FD4947",
";  c #FD4D4B",
":  c #FB514C",
">  c #F5594E",
",  c #FC5A4C",
"<  c #ED5D51",
"1  c #FD5453",
"2  c #F05E55",
"3  c #FA5C52",
"4  c #FE5A5A",
"5  c #D6625E",
"6  c #DC725C",
"7  c #E76A56",
"8  c #E96A57",
"9  c #F46553",
"0  c #F56B55",
"q  c #FD655B",
"w  c #ED7A5D",
"e  c #F1765B",
"r  c #F7775A",
"t  c #CC6D67",
"y  c #C47871",
"u  c #EC6F65",
"i  c #F56764",
"p  c #FE6565",
"a  c #FC6B65",
"s  c #E57A67",
"d  c #F57467",
"f  c #FD7363",
"g  c #F47B67",
"h  c #FC7B63",
"j  c #FE726B",
"k  c #F67A69",
"l  c #53837E",
"z  c #AE815D",
"x  c #B4865E",
"c  c #B6885A",
"v  c #BC8C5D",
"b  c #86917F",
"n  c #BF8365",
"m  c #B98C62",
"M  c #BD9262",
"N  c #AA857D",
"B  c #AB9B7D",
"V  c #EF825D",
"C  c #FD8455",
"Z  c #FDA45B",
"A  c #FDB65F",
"S  c #C38665",
"D  c #CB8763",
"F  c #C48A65",
"G  c #CD8865",
"H  c #C48769",
"J  c #CB8668",
"K  c #C68A69",
"L  c #CC8B69",
"P  c #D28A66",
"I  c #D28C68",
"U  c #C29361",
"Y  c #C49B63",
"T  c #CD926B",
"R  c #C79B6B",
"E  c #D29667",
"W  c #D3956B",
"Q  c #DA956A",
"!  c #D49B6D",
"~  c #DA9B6D",
"^  c #CB8571",
"/  c #D88D70",
"(  c #E88964",
")  c #EE8B6B",
"_  c #F68767",
"`  c #FD8264",
"'  c #FC896C",
"]  c #E89568",
"[  c #EB936D",
"{  c #E59C6C",
"}  c #FD9461",
"|  c #FD9B60",
" . c #FC8D7A",
".. c #F89876",
"X. c #FD9D74",
"o. c #D4A06C",
"O. c #DEA16E",
"+. c #D7A777",
"@. c #DDA772",
"#. c #DEAC74",
"$. c #E3A36F",
"%. c #E3AA6F",
"&. c #FCA668",
"*. c #E3A670",
"=. c #E3AB72",
"-. c #E8AB7A",
";. c #F0A477",
":. c #FDAA77",
">. c #FCA97B",
",. c #E4B375",
"<. c #E6B778",
"1. c #E8BC7B",
"2. c #FDB876",
"3. c #FDC17A",
"4. c #548F92",
"5. c #5D9394",
"6. c #5C9498",
"7. c #6F8A87",
"8. c #639595",
"9. c #669999",
"0. c #699B9A",
"q. c #759A93",
"w. c #6EA0A3",
"e. c #74A2A2",
"r. c #04C9FB",
"t. c #13CCFD",
"y. c #2BCFF5",
"u. c #39D2F7",
"i. c #7CD6DC",
"p. c #54DAF5",
"a. c #76D9E3",
"s. c #8C8182",
"d. c #81908C",
"f. c #829E98",
"g. c #AF8585",
"h. c #AAA986",
"j. c #ACAA89",
"k. c #A5AA90",
"l. c #B8B391",
"z. c #86AEAE",
"x. c #90B0AD",
"c. c #95B9B9",
"v. c #9CBBBB",
"b. c #A9B9B1",
"n. c #B5BFB6",
"m. c #CF8580",
"M. c #FC9980",
"N. c #CCAB86",
"B. c #CCAE8E",
"V. c #DFAF8D",
"C. c #FBA385",
"Z. c #E5B388",
"A. c #FABA84",
"S. c #EDAD98",
"D. c #FCC48B",
"F. c #FDCD8E",
"G. c #F4C496",
"H. c #FCCE91",
"J. c #EFD09C",
"K. c #FED291",
"L. c #FED39A",
"P. c #CAD3AF",
"I. c #D5D2AA",
"U. c #D9DBB6",
"Y. c #E5C1A1",
"T. c #EFD5A4",
"R. c #E9D6AA",
"E. c #F9D8A9",
"W. c #E5CBB5",
"Q. c #9CBFC1",
"!. c #96C2C2",
"~. c #84D8DD",
"^. c #AACDC8",
"/. c #B8C7C1",
"(. c #AED6CC",
"). c #B2D8C7",
"_. c #A9DAD0",
"`. c #BFD2D1",
"'. c #B1E2DF",
"]. c #DBDBC3",
"[. c #C7D8D8",
"{. c #D4DDDC",
"}. c #E1DACD",
"|. c #EDDFD0",
" X c #ECE3DB",
".X c #F6E2D2",
"XX c #E5E5E4",
"oX c #E8E7E6",
"OX c #F9F4F1",
"+X c #FEFFFF",
/* pixels */
"+.O.%.=.<.1.1.,.@.] { ,.w = ; ~ @.=.,.,.Z.<.<.#.+.,.,.=.%.<.#.c ",
"m W $.*.$.=.=.~ > - : 9 , 1 4 d d d h g k ) [ W K W ~ @.$.*.! # ",
"S W O.*.*.=.=.~ 7 ; = ; p p p p p p p p p p p d s H L T W T F O ",
"n W O.*.$.=.=.~ I 8 ; p p p p p p p p p p p p p p u J K H K % X ",
"m W *.$.$.=.=.~ 8 = 4 p p p p p p p p p p a p p p p s W W W F X ",
"H ! =.=.$.=.=.w = ; p p p p a p p p p p p a p p p p p { *.$.E @ ",
"S ~ ,.=.$.=.{ ; - 1 p p p p p p p p p p p p p a p p p ) =.$.E @ ",
"D ~ =.=.$.=.w = - 4 p p p p p p p p p p p p p p p p p _ ,.$.E @ ",
"G ~ =.=.$.$.q - - 4 p p p p p p p a p p p p p p p p p d *.*.E + ",
"D ~ =.=.$.$.3 - = 4 p p p p p p p p a p p p p p p p p a *.*.E + ",
"S W @.*.$.$.3 = = 4 p p p p p p p p p p p p p p p p p j *.*.! @ ",
"S T { *.$.{ 9 = = : p p p p p p p a p p p h p p p a p k %.=.o.@ ",
"n W $.*.$.{ 9 = = : p p p p p p p p p p a | f p p p p ) *.=.o.# ",
"n W O.$.$.*.9 = - , q p f ` ` ' M. .X.>.2.3.:... .` h $.$.=.o.# ",
"n T { $.*.*.0 = , Z } p C A 2.].a.).K.H.H.H.R.~.~.G.[ =.$.,.o.# ",
"n W @.$.$.*.0 . C A } p h 2.E.p.r.u.I.H.H.H.(.t.t.(.;.%.$.=.o.# ",
"S Q ~ $.$.$.0 = r A ` p r 3.E.u.r.y.P.H.F.H._.t.t.^...%.$.=.o.# ",
"G Q $.$.$.$.9 = - C h p h 2.L.'.u.i.J.H.H.F.R.a.a.S.k =.$.*.o.# ",
"G Q $.$.$.{ , = = ; q p p &.D.L.U.T.F.F.F.F.F.G.C.j a { $.,.o.# ",
"G Q $.$.%.r - = - : p p i & b k.j.h.j.l.j./ q : 1 p p [ $.=.o.# ",
"S E { @.] ; - - = 4 p p y 4.  4.6.4.w.Q.4.  * = ; p p ) %.=.o.@ ",
"S E @.,.e = - = - : p 4 / z.l 8.9.9.9.z.0.q.t = - 3 g { $.=.o.# ",
"n W *.,.e = = = = = = 3 A.G.N 5.8.8.5.z.f.R...- - > { $.$.=.o.# ",
"n ! #.,.) = - = = = - >.H...u Q.v.c.c.!.m.>.F.r = 9 $.$.$.,.o.# ",
"n ! ,.,.-.9 = = = = h F.F.h y c.v.Q.b.!.g.' H.D.> ( $.$.$.=.o.# ",
"n T +.#.#.~ 9 = = - X.K.>.5 7.8.8.6.6.8.9.y A.K.;.Q @.$.$.=.o.# ",
"n K T T T T L 6 < : h X.2 s.9.9.9.9.9.9.9.d.+.F.-.W #.*.$.$.E # ",
"n H K K K K K L P Q ] V ^ 8.9.9.0.9.9.0.9.8.B W H ! =.=.$.$.E + ",
"n T o.! ! o.~ W P Q =.*.Z.b.e.9.9.8.8.9.0.x.B.L K ! =.,.=.$.E @ ",
"n ! =.*.$.*.=.~ P Q { *.$.Z.}.[.`.n./.[.{.Y.*.W K ! =.,.,.%.E + ",
"n W *.*.*.*.=.~ P Q $.*.$.=..X+XOXV.W.XXoXZ.~ T K ! =.=.=.$.E @ ",
"$ m M U U Y Y M % v U U U R |.+X Xx B.XXXXN.M m z M R Y U U c o "
};
