/* XPM */
static char *_05eefb42cce426af103fbe7028b141904qiM5aZnmWBQd5B[] = {
/* columns rows colors chars-per-pixel */
"100 100 60 1 ",
"  c #120C14",
". c #131F29",
"X c #201A22",
"o c #3C1F3C",
"O c #1D242C",
"+ c #142E3A",
"@ c #26363E",
"# c #3D383E",
"$ c #6A1859",
"% c #2F4952",
"& c #504C51",
"* c #545F66",
"= c #635F64",
"- c #AC6D07",
"; c #FC734D",
": c #A49F08",
"> c #FC9F00",
", c #FC9315",
"< c #A3DF26",
"1 c #A1E033",
"2 c #FDD600",
"3 c #DEEF0D",
"4 c #EFEA01",
"5 c #FDF800",
"6 c #187386",
"7 c #467780",
"8 c #E40086",
"9 c #E50F8D",
"0 c #EB1797",
"q c #E71A92",
"w c #F537AE",
"e c #F63AB0",
"r c #FB4A96",
"t c #EE61B4",
"y c #FB2CCB",
"u c #FF58C6",
"i c #C471F6",
"p c #FA76F2",
"a c #1B9AB0",
"s c #4E8993",
"d c #65B7C1",
"f c #1ECCE7",
"g c #30D3EB",
"h c #6ECAD5",
"j c #8A8C91",
"k c #928F93",
"l c #A5A3A6",
"z c #AEACAF",
"x c #B9BAF9",
"c c #F8BCDF",
"v c #E48DF4",
"b c #98DDFD",
"n c #82F4FF",
"m c #D4D3D5",
"M c #C5FAFF",
"N c #E4E4E4",
"B c #E7E6E7",
"V c #EFEEEF",
"C c #FDF0F8",
"Z c white",
/* pixels */
"ZZZZZZZZZZZZZZZZZZZZZZZZZZZZZZZZZZZZZZZZZZZZZZZZZZZZZZZZZZZZZZZZZZZZZZZZZZZZ888888888ZZZ888888888ZZZ",
"ZZZZZZZZZZZZZZZZZZZZZZZZZZZZZZZZZZZZZZZZZZZZZZZZZZZZZZZZZZZZZZZZZZZZZZZZZZZZ888888888ZZZ888888888ZZZ",
"ZZZZZZZZZZZZZZZZZZZZZZZZZZZZZZZZZZZZZZZZZZZZZZZZZZZZZZZZZZZZZZZZZZZZZZZZZZZZ888888888ZZZ888888888ZZZ",
"ZZZZZZZZZZZZZZZZZZZZZ   ZZZZZZZZZZZZZZZZZZZZZZZZZZZZZZZZZZZZZZZZZZZZZZZZZ888888uuu888888888uuu888888",
"ZZZZZZZZZZZZZZZZZZZZZ   ZZZZZZZZZZZZZZZZZZZZZZZZZZZZZZZZZZZZZZZZZZZZZZZZZ888888uuu888888888uuu888888",
"ZZZZZZZZZZZZZZZZZZZZZ   ZZZZZZZZZZZZZZZZZZZZZZZZZZZZZZZZZZZZZZZZZZZZZZZZZ888888uuu888888888uuu888888",
"ZZZZZZZZZZZZZZZZZZ   iii   ZZZZZZZZZZZZZZZZZZZZZZZZZZZZZZZZZZZZZZZZZZZZZZ888uuuuuuuuu888uuuuuuuuu888",
"ZZZZZZZZZZZZZZZZZZ   iii   ZZZZZZZZZZZZZZZZZZZZZZZZZZZZZZZZZZZZZZZZZZZZZZ888uuuuuuuuu888uuuuuuuuu888",
"ZZZZZZZZZZZZZZZZZZ   iii   ZZZZZZZZZZZZZZZZZZZZZZZZZZZZZZZZZZZZZZZZZZZZZZ888uuuuuuuuu888uuuuuuuuu888",
"ZZZZZZZZZZZZZZZZZZ   iii   ZZZZZZZZZZZZZZZZZZZZZZZZZZZZZZZZZZZZZZZZZZZZZZ888888uuuuuuuuuuuuuuu888888",
"ZZZZZZZZZZZZZZZZZZ   iii   ZZZZZZZZZZZZZZZZZZZZZZZZZZZZZZZZZZZZZZZZZZZZZZ888888uuuuuuuuuuuuuuu888888",
"ZZZZZZZZZZZZZZZZZZ   iii   ZZZZZZZZZZZZZZZZZZZZZZZZZZZZZZZZZZZZZZZZZZZZZZ888888uuuuuuuuuuuuuuu888888",
"ZZZZZZZZZZZZZZZZZZ   iiiiii   ZZZZZZZZZZZZZZZZZZZZZZZZZZZZZZZZZZZZZZZZZZZZZZ888888uuuuuuuuu888888ZZZ",
"ZZZZZZZZZZZZZZZZZZ   iiiiii   ZZZZZZZZZZZZZZZZZZZZZZZZZZZZZZZZZZZZZZZZZZZZZZ888888uuuuuuuuu888888ZZZ",
"ZZZZZZZZZZZZZZZZZZ   iiiiii   ZZZZZZZZZZZZZZZZZZZZZZZZZZZZZZZZZZZZZZZZZZZZZZ888888uuuuuuuuu888888ZZZ",
"ZZZZZZZZZZZZZZZZZZ   iiinnn   ZZZZZZZZZZZZZZZZZZZZZZZZZZZZZZZZZZZZZZZZZZZZZZZZZ888888uuu888888ZZZZZZ",
"ZZZZZZZZZZZZZZZZZZ   iiinnn   ZZZZZZZZZZZZZZZZZZZZZZZZZZZZZZZZZZZZZZZZZZZZZZZZZ888888uuu888888ZZZZZZ",
"ZZZZZZZZZZZZZZZZZZ   iiinnn   ZZZZZZZZZZZZZZZZZZZZZZZZZZZZZZZZZZZZZZZZZZZZZZZZZ888888uuu888888ZZZZZZ",
"ZZZZZZZZZZZZZZZZZZ   nnnnnnnnn   ZZZZZZZZZZZZZZZZZZZZZZZZZZZZZZZZZZZZZZZZZZZZZZZZZ888888888ZZZZZZZZZ",
"ZZZZZZZZZZZZZZZZZZ   nnnnnnnnn   ZZZZZZZZZZZZZZZZZZZZZZZZZZZZZZZZZZZZZZZZZZZZZZZZZ888888888ZZZZZZZZZ",
"ZZZZZZZZZZZZZZZZZZ   nnnnnnnnn   ZZZZZZZZZZZZZZZZZZZZZZZZZZZZZZZZZZZZZZZZZZZZZZZZZ888888888ZZZZZZZZZ",
"ZZZZZZZZZZZZZZZZZZZZZ   nnn<<<   ZZZZZZZZZZZZZZZZZZZZZZZZZZZZZZZZZZZZZZZZZZZZZZZZZZZZ888ZZZZZZZZZZZZ",
"ZZZZZZZZZZZZZZZZZZZZZ   nnn<<<   ZZZZZZZZZZZZZZZZZZZZZZZZZZZZZZZZZZZZZZZZZZZZZZZZZZZZ888ZZZZZZZZZZZZ",
"ZZZZZZZZZZZZZZZZZZZZZ   nnn<<<   ZZZZZZZZZZZZZZZZZZZZZZZZZZZZZZZZZZZZZZZZZZZZZZZZZZZZ888ZZZZZZZZZZZZ",
"ZZZZZZZZZZZZZZZZZZZZZ   111<<<444XXXZZZZZZZZZZZZZZZZZZZZZZZZZ999999ZZZ999999ZZZZZZZZZCCCZZZZZZZZZZZZ",
"ZZZZZZZZZZZZZZZZZZZZZ   <<<<<<555   ZZZZZZZZZZZZZZZZZZZZZZZZZ888888ZZZ888888ZZZZZZZZZZZZZZZZZZZZZZZZ",
"ZZZZZZZZZZZZZZZZZZZZZ   <<<<<<555   ZZZZZZZZZZZZZZZZZZZZZZZZZ888888ZZZ888888ZZZZZZZZZZZZZZZZZZZZZZZZ",
"ZZZZZZZZZZZZZZZZZZZZZ   <<<<<<555   ZZZZZZZZZZZZZZZZZZZZZZ888uuuuuu888uuuuuu888ZZZZZZZZZZZZZZZZZZZZZ",
"ZZZZZZZZZZZZZZZZZZZZZ   <<<<<<555   ZZZZZZZZZZZZZZZZZZZZZZ888uuuuuu888uuuuuu888ZZZZZZZZZZZZZZZZZZZZZ",
"ZZZZZZZZZZZZZZZZZZZZZ   <<<<<<555   ZZZZZZZZZZZZZZZZZZZZZZ888uuuuuu888uuuuuu888ZZZZZZZZZZZZZZZZZZZZZ",
"ZZZZZZZZZZZZZZZZZZZZZ   <<<333555---===ZZZZZZZZZZZZZZZZZZZ888uuuuuueeeuuuuuu888ZZZZZZZZZZZZZZZZZZZZZ",
"ZZZZZZZZZZZZZZZZZZZZZ   <<<555555>>>   ZZZZZZZZZZZZZZZZZZZ888uuuuuuuuuuuuuuu888ZZZZZZZZZZZZZZZZZZZZZ",
"ZZZZZZZZZZZZZZZZZZZZZ   <<<555555>>>   ZZZZZZZZZZZZZZZZZZZ888uuuuuuuuuuuuuuu888ZZZZZZZZZZZZZZZZZZZZZ",
"ZZZZZZZZZZZZZZZZZZZZZ   555555>>>>>>   ZZZZZZZZZZZZZZZZZZZZZZ888uuuuuuuuu888ZZZZZZZZZZZZZZZZZZZZZZZZ",
"ZZZZZZZZZZZZZZZZZZZZZ   555555>>>>>>   ZZZZZZZZZZZZZZZZZZZZZZ888uuuuuuuuu888ZZZZZZZZZZZZZZZZZZZZZZZZ",
"ZZZZZZZZZZZZZZZZZZZZZ   555555>>>>>>   ZZZZZZZZZZZZZZZZZZZZZZ888uuuuuuuuu888ZZZZZZZZZZZZZZZZZZZZZZZZ",
"ZZZZZZZZZZZZZZZZZZlll   :::222>>>;;;$$$lllllllllVZZZZZZZZZZZZtttwwwuuuwwwtttZZZZZZZZZZZZZZZZZZZZZZZZ",
"ZZZZZZZZZZZZZZZZZZ         >>>>>>yyyyyy         mZZZZZZZZZZZZZZZ888uuu888ZZZZZZZZZZZZZZZZZZZZZZZZZZZ",
"ZZZZZZZZZZZZZZZZZZ         >>>>>>yyyyyy         mZZZZZZZZZZZZZZZ888uuu888ZZZZZZZZZZZZZZZZZZZZZZZZZZZ",
"ZZZZZZZZZZZZZZZ&&&dddaaa   >>>rrryyyyyy   dddddd*&&&&&zZZZZZZZZZccc000cccZZZZZZZZZZZZZZZZZZZZZZZZZZZ",
"ZZZZZZZZZZZZZZZ   nnnfff   >>>yyyyyyyyy   nnnnnn@     kZZZZZZZZZZZZ888ZZZZZZZZZZZZZZZZZZZZZZZZZZZZZZ",
"ZZZZZZZZZZZZZZZ   nnnfff   >>>yyyyyyyyy   nnnnnn@     kZZZZZZZZZZZZ888ZZZZZZZZZZZZZZZZZZZZZZZZZZZZZZ",
"ZZZZZZZZZZZZBBB...nnnfff   ,,,yyyyyyyyy   nnnnnn%OOOOOjBBBZZZZZZZZZqqqZZZZZZZZZZZZZZZZZZZZZZZZZZZZZZ",
"ZZZZZZZZZZZZ   fffnnnfff   yyyyyyyyyyyy   nnnnnnnnnnnn7   ZZZZZZZZZZZZZZZZZZZZZZZZZZZZZZZZZZZZZZZZZZ",
"ZZZZZZZZZZZZ   fffnnnfff   yyyyyyyyyyyy   nnnnnnnnnnnn7   ZZZZZZZZZZZZZZZZZZZZZZZZZZZZZZZZZZZZZZZZZZ",
"ZZZZZZZZZZZZ   fffnnnfff   yyyyyyyyyyyy   nnnnnnnnnnnn7   ZZZZZZZZZZZZZZZZZZZZZZZZZZZZZZZZZZZZZZZZZZ",
"ZZZZZZZZZ   fffnnnnnnnnnfff            nnnnnnnnnnnnnnnnnnn   ZZZZZZZZZZZZZZZZZZZZZZZZZZZZZZZZZZZZZZZ",
"ZZZZZZZZZ   fffnnnnnnnnnfff            nnnnnnnnnnnnnnnnnnn   ZZZZZZZZZZZZZZZZZZZZZZZZZZZZZZZZZZZZZZZ",
"ZZZZZZZZZ   fffnnnnnnnnnfff            nnnnnnnnnnnnnnnnnnn   ZZZZZZZZZZZZZZZZZZZZZZZZZZZZZZZZZZZZZZZ",
"ZZZZZZ   ffffffnnnnnnnnnffffffffffffnnnnnnnnnnnnnnnnnnnnnnnnn   ZZZZZZZZZZZZZZZZZZZZZZZZZZZZZZZZZZZZ",
"ZZZZZZ   ffffffnnnnnnnnnffffffffffffnnnnnnnnnnnnnnnnnnnnnnnnn   ZZZZZZZZZZZZZZZZZZZZZZZZZZZZZZZZZZZZ",
"ZZZZZZ   ffffffnnnnnnnnnffffffffffffnnnnnnnnnnnnnnnnnnnnnnnnn   ZZZZZZZZZZZZZZZZZZZZZZZZZZZZZZZZZZZZ",
"ZZZ   fffffffffnnnnnnnnnnnnnnnnnnnnnnnnnnnnnnnnnnnnnnnnnnnnnnnnn   ZZZZZZZZZZZZZZZZZZZZZZZZZZZZZZZZZ",
"ZZZ   fffffffffnnnnnnnnnnnnnnnnnnnnnnnnnnnnnnnnnnnnnnnnnnnnnnnnn   ZZZZZZZZZZZZZZZZZZZZZZZZZZZZZZZZZ",
"ZZZ   fffffffffnnnnnnnnnnnnnnnnnnnnnnnnnnnnnnnnnnnnnnnnnnnnnnnnn   ZZZZZZZZZZZZZZZZZZZZZZZZZZZZZZZZZ",
"ZZZ   ffffff         nnnnnnnnnnnnnnnnnn         hnnnnnnnnnnnnnnn   ZZZZZZZZZZZZZZZ   ZZZZZZZZZZZZZZZ",
"ZZZ   ffffff         nnnnnnnnnnnnnnnnnn         hnnnnnnnnnnnnnnn   ZZZZZZZZZZZZZZZ   ZZZZZZZZZZZZZZZ",
"ZZZ   ffffff         nnnnnnnnnnnnnnnnnn         hnnnnnnnnnnnnnnn   ZZZZZZZZZZZZZZZ   ZZZZZZZZZZZZZZZ",
"ZZZ   fff      ZZZZZZ   nnnnnnnnnnnn      ZZZZZZ#  @nnnnnnnnnnnnnnn   ZZZZZZZZZ   fff   ZZZZZZZZZZZZ",
"ZZZ   fff      ZZZZZZ   nnnnnnnnnnnn      ZZZZZZ#  @nnnnnnnnnnnnnnn   ZZZZZZZZZ   fff   ZZZZZZZZZZZZ",
"ZZZ   fff      ZZZZZZ   nnnnnnnnnnnn      ZZZZZZ#  @nnnnnnnnnnnnnnn   ZZZZZZZZZ   fff   ZZZZZZZZZZZZ",
"   ffffff   ZZZ         nnnnnnnnnnnn   ZZZ         @nnnnnnnnnnnnnnn   ZZZZZZ   ffffff   ZZZZZZZZZZZZ",
"   ffffff   ZZZ         nnnnnnnnnnnn   ZZZ         @nnnnnnnnnnnnnnn   ZZZZZZ   ffffff   ZZZZZZZZZZZZ",
"   ffffff   ZZZ         nnnnnnnnnnnn   ZZZ         @nnnnnnnnnnnnnnn   ZZZZZZ   ffffff   ZZZZZZZZZZZZ",
"   fffppp               nnnnnnnnnnnn               oppxnnnnnnnnnnnnnnn   ZZZ   ffffff   ZZZZZZZZZZZZ",
"   fffppp               nnnnnnnnnnnn               oppxnnnnnnnnnnnnnnn   ZZZ   ffffff   ZZZZZZZZZZZZ",
"   fffppp               nnnnnnnnnnnn               oppxnnnnnnnnnnnnnnn   ZZZ   ffffff   ZZZZZZZZZZZZ",
"   pppppppppfffnnnnnnnnnnnnnnnnnnnnnnnnnnnnnnnnnvpppppppppnnnnnnnnnnnnnnn   ZZZ   ffffff         ZZZ",
"   pppppppppfffnnnnnnnnnnnnnnnnnnnnnnnnnnnnnnnnnvpppppppppnnnnnnnnnnnnnnn   ZZZ   ffffff         ZZZ",
"   pppppppppfffnnnnnnnnnnnnnnnnnnnnnnnnnnnnnnnnnvpppppppppnnnnnnnnnnnnnnn   ZZZ   ffffff         ZZZ",
"   fffpppffffffnnnnnnnnn   nnnnnn   nnnnnnnnnnnnnnnbppxnnnnnnnnnnnnnnnnnnnnn      fffffffffffffff   ",
"   fffpppffffffnnnnnnnnn   nnnnnn   nnnnnnnnnnnnnnnbppxnnnnnnnnnnnnnnnnnnnnn      fffffffffffffff   ",
"   fffpppffffffnnnnnnnnn   nnnnnn   nnnnnnnnnnnnnnnbvpxhnnnnnnnnnnnnnnnnnnnn      fffffffffffffff   ",
"      fffffffffnnnnnnnnnnnn      nnnnnnnnnnnnnnnnnnnnn*.. nnnnnnnnnnnnnnnnnnnnnnnn      ffffff   ZZZ",
"      fffffffffnnnnnnnnnnnn      nnnnnnnnnnnnnnnnnnnnn*   nnnnnnnnnnnnnnnnnnnnnnnn      ffffff   ZZZ",
"      fffffffffnnnnnnnnnnnn      nnnnnnnnnnnnnnnnnnnhhs   nnnnnnnnnnnnnnnnnnnnnnnn      ffffff   ZZZ",
"ZZZ         ffffffnnnnnnnnnnnnnnnnnnnnnnnnnnnnnn@     snnnnnnnnnnnnnnnnnnnnnnnn   ZZZZZZ      ZZZZZZ",
"ZZZ         ffffffnnnnnnnnnnnnnnnnnnnnnnnnnnnnnn@     snnnnnnnnnnnnnnnnnnnnnnnn   ZZZZZZ      ZZZZZZ",
"ZZZ         ffffffnnnnnnnnnnnnnnnnnnnnnnnnnnnnnn@     snnnnnnnnnnnnnnnnnnnnnnnn   ZZZZZZ      ZZZZZZ",
"ZZZ   nnnnnn   fffnnnnnnnnnnnnnnnnnnnnnnnnnnns  hnnnnnnnnnnnnnnnnnnnnnnnnnnn   ZZZZZZZZZZZZZZZZZZZZZ",
"ZZZ   nnnnnn   fffnnnnnnnnnnnnnnnnnnnnnnnnnnns  hnnnnnnnnnnnnnnnnnnnnnnnnnnn   ZZZZZZZZZZZZZZZZZZZZZ",
"ZZZ   nnnnnn   fffnnnnnnnnnnnnnnnnnnnnnnnnnnns  hnnnnnnnnnnnnnnnnnnnnnnnnnnn   ZZZZZZZZZZZZZZZZZZZZZ",
"ZZZZZZ   nnn   ffffffnnnnnnnnnnnnnnnnnnnnnfff6  hnnnnnnnnnnnn   nnnnnnnnn   ZZZZZZZZZZZZZZZZZZZZZZZZ",
"ZZZZZZ   nnn   ffffffnnnnnnnnnnnnnnnnnnnnnfff6  hnnnnnnnnnnnn   nnnnnnnnn   ZZZZZZZZZZZZZZZZZZZZZZZZ",
"ZZZZZZ   nnn   ffffffnnnnnnnnnnnnnnnnnnnnnfff6  hnnnnnnnnnnnn   nnnnnnnnn   ZZZZZZZZZZZZZZZZZZZZZZZZ",
"ZZZZZZZZZ   fffffffffZZZZZZZZZZZZZZZZZZnnnffffff+            nnnnnn      ZZZZZZZZZZZZZZZZZZZZZZZZZZZ",
"ZZZZZZZZZ   fffffffffZZZZZZZZZZZZZZZZZZnnnffffff+            nnnnnn      ZZZZZZZZZZZZZZZZZZZZZZZZZZZ",
"ZZZZZZZZZ   fffffffffZZZZZZZZZZZZZZZZZZnnnffffff+            nnnnnn      ZZZZZZZZZZZZZZZZZZZZZZZZZZZ",
"ZZZZZZZZZZZZ   NNNNNNNNNZZZZZZZZZZZZZZZZZZZZZMnngffffffffffff      ZZZZZZZZZZZZZZZZZZZZZZZZZZZZZZZZZ",
"ZZZZZZZZZZZZ   NNNNNNNNNZZZZZZZZZZZZZZZZZZZZZMnngffffffffffff      ZZZZZZZZZZZZZZZZZZZZZZZZZZZZZZZZZ",
"ZZZZZZZZZZZZ   NNNNNNNNNZZZZZZZZZZZZZZZZZZZZZMnngffffffffffff      ZZZZZZZZZZZZZZZZZZZZZZZZZZZZZZZZZ",
"ZZZZZZZZZZZZZZZ      NNNBBNZZZZZZZZZZZZZZZZZZZZZZZZm         ZZZZZZZZZZZZZZZZZZZZZZZZZZZZZZZZZZZZZZZ",
"ZZZZZZZZZZZZZZZ      NNNNNNZZZZZZZZZZZZZZZZZZZZZZZZm         ZZZZZZZZZZZZZZZZZZZZZZZZZZZZZZZZZZZZZZZ",
"ZZZZZZZZZZZZZZZ      NNNNNNZZZZZZZZZZZZZZZZZZZZZZZZm         ZZZZZZZZZZZZZZZZZZZZZZZZZZZZZZZZZZZZZZZ",
"ZZZZZZZZZZZZZZZZZZZZZ                              #ZZZZZZZZZZZZZZZZZZZZZZZZZZZZZZZZZZZZZZZZZZZZZZZZ",
"ZZZZZZZZZZZZZZZZZZZZZ                              #ZZZZZZZZZZZZZZZZZZZZZZZZZZZZZZZZZZZZZZZZZZZZZZZZ",
"ZZZZZZZZZZZZZZZZZZZZZ                              #ZZZZZZZZZZZZZZZZZZZZZZZZZZZZZZZZZZZZZZZZZZZZZZZZ",
"ZZZZZZZZZZZZZZZZZZZZZZZZZZZZZZZZZZZZZZZZZZZZZZZZZZZZZZZZZZZZZZZZZZZZZZZZZZZZZZZZZZZZZZZZZZZZZZZZZZZZ",
"ZZZZZZZZZZZZZZZZZZZZZZZZZZZZZZZZZZZZZZZZZZZZZZZZZZZZZZZZZZZZZZZZZZZZZZZZZZZZZZZZZZZZZZZZZZZZZZZZZZZZ",
"ZZZZZZZZZZZZZZZZZZZZZZZZZZZZZZZZZZZZZZZZZZZZZZZZZZZZZZZZZZZZZZZZZZZZZZZZZZZZZZZZZZZZZZZZZZZZZZZZZZZZ"
};
