/* XPM */
static char *_9345c4adab24fc6e45fdc8b17d40fadO4HqaGxTBrUXaH16[] = {
/* columns rows colors chars-per-pixel */
"32 32 103 2 ",
"   c #181425",
".  c #241A28",
"X  c #2B1E2A",
"o  c #36232E",
"O  c #3B252F",
"+  c #3E2731",
"@  c #432931",
"#  c #4B2E33",
"$  c #553436",
"%  c #593536",
"&  c #5F3837",
"*  c #5D3738",
"=  c #5D3A38",
"-  c #643B39",
";  c #693F3B",
":  c #6D423C",
">  c #73453D",
",  c #79473F",
"<  c #77483F",
"1  c #7A483E",
"2  c #724640",
"3  c #754941",
"4  c #7E4B41",
"5  c #844D42",
"6  c #815145",
"7  c #8C5345",
"8  c #8E5A4B",
"9  c #935647",
"0  c #955847",
"q  c #955949",
"w  c #9C5D4A",
"e  c #A05F4B",
"r  c #AE5A49",
"t  c #B65249",
"y  c #BC554B",
"u  c #BE594E",
"i  c #9E614D",
"p  c #9F6752",
"a  c #A2614D",
"s  c #A9654B",
"d  c #AB694F",
"f  c #A36550",
"g  c #A56852",
"h  c #AB6C54",
"j  c #B16F53",
"k  c #AF7057",
"l  c #B27155",
"z  c #B47459",
"x  c #BA7758",
"c  c #C74048",
"v  c #D1464E",
"b  c #C4574F",
"n  c #DC4D54",
"m  c #C75951",
"M  c #CC5D54",
"N  c #DE545B",
"B  c #E04F56",
"V  c #E35259",
"C  c #E9555B",
"Z  c #C56053",
"A  c #CC6658",
"S  c #D16B5D",
"D  c #C3765D",
"F  c #ED5A61",
"G  c #D46D62",
"H  c #CC7662",
"J  c #C27F63",
"K  c #CD7D69",
"L  c #D47365",
"P  c #ED636A",
"I  c #F0656B",
"U  c #F2696E",
"Y  c #F36D72",
"T  c #EB7776",
"R  c #E97F7C",
"E  c #F57176",
"W  c #F57479",
"Q  c #F7797E",
"!  c #F77A7F",
"~  c #CF826D",
"^  c #CD836E",
"/  c #CA846D",
"(  c #CD8670",
")  c #D18875",
"_  c #F77C80",
"`  c #F77D81",
"'  c #F77E83",
"]  c #F08785",
"[  c #F88287",
"{  c #EE938E",
"}  c #FB8D91",
"|  c #FB8E92",
" . c #EE9792",
".. c #EE9A96",
"X. c #F49592",
"o. c #F49694",
"O. c #FC9093",
"+. c #FB9296",
"@. c #FC9498",
"#. c #FC979B",
"$. c #F49B99",
"%. c #F49E9C",
"&. c #FEA0A4",
/* pixels */
"a e e e e e a e a a e a e a a i a e a e f f f f i e e a e a a h ",
"9 4 5 w e e e a a a a e a e a i e a a e i f f i a e a f h r e q ",
"5 - ; 9 i a s e e i e a a f f f a i e a a a f i f f f g k r q 7 ",
"5 - - ; 7 d d a i e a a a f f a a a e e a i a a a f k k a q 9 5 ",
"5 - % % < p h f f i e i a f f f i a a e a e e a f h k h q q 9 5 ",
"5 - $ % - : 8 k h f i a e e e e a i a a e e e a k k g i q q 9 4 ",
"5 ; % $ % $ 3 p h h g s f f s f f f r g g f a g k k i q 9 9 9 5 ",
"5 - % $ % $ - : 8 z z z z z z z z z z z z z z k f i q 9 q 9 9 4 ",
"5 - % % $ % % % 5 z H H K ^ ^ ^ ( K ( ( ( / J z p 8 9 q 9 q 9 5 ",
"5 - % % % % % $ 4 z L G R | { {  . ....... .( z a 9 9 9 9 9 9 4 ",
"5 - % % % $ % % 6 z G P _ | O.O.| | @.#.&.$.) k i 9 9 9 9 9 9 5 ",
"5 - $ % % % $ % 6 z S F Y ) ! ! _ _ _ [ @.%.) z a 9 9 q 9 9 9 4 ",
"5 - % % % % % $ 6 z S C P W E E Y W W _ +.$.( k a 9 9 9 9 9 9 5 ",
"5 - % % % % % % 4 z A V P W E U Y Y E _ | o.( j a 9 q 9 9 q 9 2 ",
"5 - * * % % % % 4 z A N P W E U Y Y E _ | +.K k i 9 9 q 9 9 9 7 ",
"5 - * * % * % % 6 z A V P W E U Y Y Y ! | @.K k i 9 9 9 q 9 9 i ",
"5 - % * & & % % 4 h m n P W W Y E E W ! | X.^ j w 9 9 9 9 9 9 w ",
"5 - % & & % - % 1 a u n F W W E W W W ! | o.~ j w 9 9 9 9 9 9 7 ",
"5 - % % % % - % 1 a y v N P P I P U I Y ' ] K h w 9 9 9 9 9 9 5 ",
"5 - % $ % & % % 1 a t c v n B V V V C C Y T D k w 9 7 9 9 0 9 4 ",
"5 - % % % % % - 1 a r t b b b b m m m M G L H j e 9 9 7 9 9 0 4 ",
"5 - % * % & - % 1 a s s s e e s e s s s j x x z 0 9 7 7 9 9 0 4 ",
"5 - % % & & - > > 1 : > > > > : > ; > : 3 3 4 4 7 7 7 9 7 9 9 4 ",
"5 - % - & & : 1 : # @ @ # @ @ + @ + + + @ + @ * 1 9 9 7 7 9 9 5 ",
"5 - % % - : ; - # @ @ @ @ @ + + + + + + + + @ # - ; 5 7 9 7 9 1 ",
"5 - % - ; > ; # + @ @ + + + + + + + + + + + + @ @ % 1 7 7 7 7 1 ",
"5 ; - - - - % # @ @ @ + + + + + + + + + + @ @ @ @ # * ; 1 5 7 1 ",
"1 ; - - & # # @ @ @ @ + + + + + + + + @ @ @ @ @ @ @ @ $ - 1 5 3 ",
"< : - $ # @ @ + @ @ + + + + @ @ @ @ @ + + + @ @ + @ @ # % - , ; ",
"- - $ + o O o o o O o o O O O @ + + O o o o o o o O O @ @ # * % ",
"o o X . . . . . .   . . . . . . . . . . . . . . . . . X . X o X ",
"                                                                "
};
